<?xml version="1.0" encoding="UTF-8" standalone="no"?>
<!DOCTYPE svg PUBLIC "-//W3C//DTD SVG 1.1//EN"
 "http://www.w3.org/Graphics/SVG/1.1/DTD/svg11.dtd">
<!-- Generated by graphviz version 2.47.3 (20210619.1520)
 -->
<!-- Title: dependencies Pages: 1 -->
<svg width="432pt" height="174pt"
 viewBox="0.00 0.00 432.00 173.80" xmlns="http://www.w3.org/2000/svg" xmlns:xlink="http://www.w3.org/1999/xlink">
<g id="graph0" class="graph" transform="scale(1 1) rotate(0) translate(4 169.8)">
<title>dependencies</title>
<polygon fill="white" stroke="transparent" points="-4,4 -4,-169.8 428,-169.8 428,4 -4,4"/>
<text text-anchor="middle" x="212" y="-8.2" font-family="sans-serif" font-size="14.00">dependencies</text>
<g id="clust1" class="cluster">
<title>cluster_HomePageModule</title>
<polygon fill="none" stroke="black" stroke-dasharray="1,5" points="8,-32.8 8,-157.8 416,-157.8 416,-32.8 8,-32.8"/>
</g>
<g id="clust4" class="cluster">
<title>cluster_HomePageModule_imports</title>
<polygon fill="none" stroke="black" points="118,-40.8 118,-92.8 408,-92.8 408,-40.8 118,-40.8"/>
</g>
<g id="clust2" class="cluster">
<title>cluster_HomePageModule_declarations</title>
<polygon fill="none" stroke="black" points="16,-40.8 16,-92.8 110,-92.8 110,-40.8 16,-40.8"/>
</g>
<!-- HomePage -->
<g id="node1" class="node">
<title>HomePage</title>
<polygon fill="#ffffb3" stroke="black" points="101.92,-84.8 24.08,-84.8 24.08,-48.8 101.92,-48.8 101.92,-84.8"/>
<text text-anchor="middle" x="63" y="-62.6" font-family="Times,serif" font-size="14.00">HomePage</text>
</g>
<!-- HomePageModule -->
<g id="node2" class="node">
<title>HomePageModule</title>
<polygon fill="#8dd3c7" stroke="black" points="231.47,-149.8 228.47,-153.8 207.47,-153.8 204.47,-149.8 110.53,-149.8 110.53,-113.8 231.47,-113.8 231.47,-149.8"/>
<text text-anchor="middle" x="171" y="-127.6" font-family="Times,serif" font-size="14.00">HomePageModule</text>
</g>
<!-- HomePage&#45;&gt;HomePageModule -->
<g id="edge1" class="edge">
<title>HomePage&#45;&gt;HomePageModule</title>
<path fill="none" stroke="black" d="M101.83,-66.8C111.16,-66.8 118.48,-66.8 118.48,-66.8 118.48,-66.8 118.48,-103.69 118.48,-103.69"/>
<polygon fill="black" stroke="black" points="114.98,-103.69 118.48,-113.69 121.98,-103.69 114.98,-103.69"/>
</g>
<!-- HomePageRoutingModule -->
<g id="node3" class="node">
<title>HomePageRoutingModule</title>
<polygon fill="#8dd3c7" stroke="black" points="400.09,-84.8 397.09,-88.8 376.09,-88.8 373.09,-84.8 233.91,-84.8 233.91,-48.8 400.09,-48.8 400.09,-84.8"/>
<text text-anchor="middle" x="317" y="-62.6" font-family="Times,serif" font-size="14.00">HomePageRoutingModule</text>
</g>
<!-- HomePageRoutingModule&#45;&gt;HomePageModule -->
<g id="edge2" class="edge">
<title>HomePageRoutingModule&#45;&gt;HomePageModule</title>
<path fill="none" stroke="black" d="M233.88,-66.8C227.53,-66.8 223.52,-66.8 223.52,-66.8 223.52,-66.8 223.52,-103.69 223.52,-103.69"/>
<polygon fill="black" stroke="black" points="220.02,-103.69 223.52,-113.69 227.02,-103.69 220.02,-103.69"/>
</g>
<!-- LogoModule -->
<g id="node4" class="node">
<title>LogoModule</title>
<polygon fill="#8dd3c7" stroke="black" points="215.6,-84.8 212.6,-88.8 191.6,-88.8 188.6,-84.8 126.4,-84.8 126.4,-48.8 215.6,-48.8 215.6,-84.8"/>
<text text-anchor="middle" x="171" y="-62.6" font-family="Times,serif" font-size="14.00">LogoModule</text>
</g>
<!-- LogoModule&#45;&gt;HomePageModule -->
<g id="edge3" class="edge">
<title>LogoModule&#45;&gt;HomePageModule</title>
<path fill="none" stroke="black" d="M171,-84.91C171,-84.91 171,-103.79 171,-103.79"/>
<polygon fill="black" stroke="black" points="167.5,-103.79 171,-113.79 174.5,-103.79 167.5,-103.79"/>
</g>
</g>
</svg>
