<?xml version="1.0" encoding="UTF-8" standalone="no"?>
<!DOCTYPE svg PUBLIC "-//W3C//DTD SVG 1.1//EN"
 "http://www.w3.org/Graphics/SVG/1.1/DTD/svg11.dtd">
<!-- Generated by graphviz version 2.47.3 (20210619.1520)
 -->
<!-- Title: dependencies Pages: 1 -->
<svg width="523pt" height="174pt"
 viewBox="0.00 0.00 523.00 173.80" xmlns="http://www.w3.org/2000/svg" xmlns:xlink="http://www.w3.org/1999/xlink">
<g id="graph0" class="graph" transform="scale(1 1) rotate(0) translate(4 169.8)">
<title>dependencies</title>
<polygon fill="white" stroke="transparent" points="-4,4 -4,-169.8 519,-169.8 519,4 -4,4"/>
<text text-anchor="middle" x="257.5" y="-8.2" font-family="sans-serif" font-size="14.00">dependencies</text>
<g id="clust1" class="cluster">
<title>cluster_SubjectsPageModule</title>
<polygon fill="none" stroke="black" stroke-dasharray="1,5" points="8,-32.8 8,-157.8 507,-157.8 507,-32.8 8,-32.8"/>
</g>
<g id="clust2" class="cluster">
<title>cluster_SubjectsPageModule_declarations</title>
<polygon fill="none" stroke="black" points="393,-40.8 393,-92.8 499,-92.8 499,-40.8 393,-40.8"/>
</g>
<g id="clust4" class="cluster">
<title>cluster_SubjectsPageModule_imports</title>
<polygon fill="none" stroke="black" points="16,-40.8 16,-92.8 385,-92.8 385,-40.8 16,-40.8"/>
</g>
<!-- SubjectsPage -->
<g id="node1" class="node">
<title>SubjectsPage</title>
<polygon fill="#ffffb3" stroke="black" points="491.15,-84.8 400.85,-84.8 400.85,-48.8 491.15,-48.8 491.15,-84.8"/>
<text text-anchor="middle" x="446" y="-62.6" font-family="Times,serif" font-size="14.00">SubjectsPage</text>
</g>
<!-- SubjectsPageModule -->
<g id="node2" class="node">
<title>SubjectsPageModule</title>
<polygon fill="#8dd3c7" stroke="black" points="366.2,-149.8 363.2,-153.8 342.2,-153.8 339.2,-149.8 231.8,-149.8 231.8,-113.8 366.2,-113.8 366.2,-149.8"/>
<text text-anchor="middle" x="299" y="-127.6" font-family="Times,serif" font-size="14.00">SubjectsPageModule</text>
</g>
<!-- SubjectsPage&#45;&gt;SubjectsPageModule -->
<g id="edge1" class="edge">
<title>SubjectsPage&#45;&gt;SubjectsPageModule</title>
<path fill="none" stroke="black" d="M446,-84.91C446,-104.14 446,-131.8 446,-131.8 446,-131.8 376.48,-131.8 376.48,-131.8"/>
<polygon fill="black" stroke="black" points="376.48,-128.3 366.48,-131.8 376.48,-135.3 376.48,-128.3"/>
</g>
<!-- OverviewHeaderModule -->
<g id="node3" class="node">
<title>OverviewHeaderModule</title>
<polygon fill="#8dd3c7" stroke="black" points="376.65,-84.8 373.65,-88.8 352.65,-88.8 349.65,-84.8 221.35,-84.8 221.35,-48.8 376.65,-48.8 376.65,-84.8"/>
<text text-anchor="middle" x="299" y="-62.6" font-family="Times,serif" font-size="14.00">OverviewHeaderModule</text>
</g>
<!-- OverviewHeaderModule&#45;&gt;SubjectsPageModule -->
<g id="edge2" class="edge">
<title>OverviewHeaderModule&#45;&gt;SubjectsPageModule</title>
<path fill="none" stroke="black" d="M299,-84.91C299,-84.91 299,-103.79 299,-103.79"/>
<polygon fill="black" stroke="black" points="295.5,-103.79 299,-113.79 302.5,-103.79 295.5,-103.79"/>
</g>
<!-- SubjectsPageRoutingModule -->
<g id="node4" class="node">
<title>SubjectsPageRoutingModule</title>
<polygon fill="#8dd3c7" stroke="black" points="203.82,-84.8 200.82,-88.8 179.82,-88.8 176.82,-84.8 24.18,-84.8 24.18,-48.8 203.82,-48.8 203.82,-84.8"/>
<text text-anchor="middle" x="114" y="-62.6" font-family="Times,serif" font-size="14.00">SubjectsPageRoutingModule</text>
</g>
<!-- SubjectsPageRoutingModule&#45;&gt;SubjectsPageModule -->
<g id="edge3" class="edge">
<title>SubjectsPageRoutingModule&#45;&gt;SubjectsPageModule</title>
<path fill="none" stroke="black" d="M114,-84.91C114,-104.14 114,-131.8 114,-131.8 114,-131.8 221.69,-131.8 221.69,-131.8"/>
<polygon fill="black" stroke="black" points="221.69,-135.3 231.69,-131.8 221.69,-128.3 221.69,-135.3"/>
</g>
</g>
</svg>
