<?xml version="1.0" encoding="UTF-8" standalone="no"?>
<!DOCTYPE svg PUBLIC "-//W3C//DTD SVG 1.1//EN"
 "http://www.w3.org/Graphics/SVG/1.1/DTD/svg11.dtd">
<!-- Generated by graphviz version 2.47.3 (20210619.1520)
 -->
<!-- Title: dependencies Pages: 1 -->
<svg width="404pt" height="174pt"
 viewBox="0.00 0.00 404.00 173.80" xmlns="http://www.w3.org/2000/svg" xmlns:xlink="http://www.w3.org/1999/xlink">
<g id="graph0" class="graph" transform="scale(1 1) rotate(0) translate(4 169.8)">
<title>dependencies</title>
<polygon fill="white" stroke="transparent" points="-4,4 -4,-169.8 400,-169.8 400,4 -4,4"/>
<text text-anchor="middle" x="198" y="-8.2" font-family="sans-serif" font-size="14.00">dependencies</text>
<g id="clust1" class="cluster">
<title>cluster_AddCalendarPageModule</title>
<polygon fill="none" stroke="black" stroke-dasharray="1,5" points="8,-32.8 8,-157.8 388,-157.8 388,-32.8 8,-32.8"/>
</g>
<g id="clust2" class="cluster">
<title>cluster_AddCalendarPageModule_declarations</title>
<polygon fill="none" stroke="black" points="246,-40.8 246,-92.8 380,-92.8 380,-40.8 246,-40.8"/>
</g>
<g id="clust4" class="cluster">
<title>cluster_AddCalendarPageModule_imports</title>
<polygon fill="none" stroke="black" points="16,-40.8 16,-92.8 238,-92.8 238,-40.8 16,-40.8"/>
</g>
<!-- AddCalendarPage -->
<g id="node1" class="node">
<title>AddCalendarPage</title>
<polygon fill="#ffffb3" stroke="black" points="371.85,-84.8 254.15,-84.8 254.15,-48.8 371.85,-48.8 371.85,-84.8"/>
<text text-anchor="middle" x="313" y="-62.6" font-family="Times,serif" font-size="14.00">AddCalendarPage</text>
</g>
<!-- AddCalendarPageModule -->
<g id="node2" class="node">
<title>AddCalendarPageModule</title>
<polygon fill="#8dd3c7" stroke="black" points="293.9,-149.8 290.9,-153.8 269.9,-153.8 266.9,-149.8 132.1,-149.8 132.1,-113.8 293.9,-113.8 293.9,-149.8"/>
<text text-anchor="middle" x="213" y="-127.6" font-family="Times,serif" font-size="14.00">AddCalendarPageModule</text>
</g>
<!-- AddCalendarPage&#45;&gt;AddCalendarPageModule -->
<g id="edge1" class="edge">
<title>AddCalendarPage&#45;&gt;AddCalendarPageModule</title>
<path fill="none" stroke="black" d="M273.89,-84.91C273.89,-84.91 273.89,-103.79 273.89,-103.79"/>
<polygon fill="black" stroke="black" points="270.39,-103.79 273.89,-113.79 277.39,-103.79 270.39,-103.79"/>
</g>
<!-- AddCalendarPageRoutingModule -->
<g id="node3" class="node">
<title>AddCalendarPageRoutingModule</title>
<polygon fill="#8dd3c7" stroke="black" points="230.02,-84.8 227.02,-88.8 206.02,-88.8 203.02,-84.8 23.98,-84.8 23.98,-48.8 230.02,-48.8 230.02,-84.8"/>
<text text-anchor="middle" x="127" y="-62.6" font-family="Times,serif" font-size="14.00">AddCalendarPageRoutingModule</text>
</g>
<!-- AddCalendarPageRoutingModule&#45;&gt;AddCalendarPageModule -->
<g id="edge2" class="edge">
<title>AddCalendarPageRoutingModule&#45;&gt;AddCalendarPageModule</title>
<path fill="none" stroke="black" d="M181.28,-84.91C181.28,-84.91 181.28,-103.79 181.28,-103.79"/>
<polygon fill="black" stroke="black" points="177.78,-103.79 181.28,-113.79 184.78,-103.79 177.78,-103.79"/>
</g>
</g>
</svg>
