<?xml version="1.0" encoding="UTF-8" standalone="no"?>
<!DOCTYPE svg PUBLIC "-//W3C//DTD SVG 1.1//EN"
 "http://www.w3.org/Graphics/SVG/1.1/DTD/svg11.dtd">
<!-- Generated by graphviz version 2.47.3 (20210619.1520)
 -->
<!-- Title: dependencies Pages: 1 -->
<svg width="366pt" height="174pt"
 viewBox="0.00 0.00 366.00 173.80" xmlns="http://www.w3.org/2000/svg" xmlns:xlink="http://www.w3.org/1999/xlink">
<g id="graph0" class="graph" transform="scale(1 1) rotate(0) translate(4 169.8)">
<title>dependencies</title>
<polygon fill="white" stroke="transparent" points="-4,4 -4,-169.8 362,-169.8 362,4 -4,4"/>
<text text-anchor="middle" x="179" y="-8.2" font-family="sans-serif" font-size="14.00">dependencies</text>
<g id="clust1" class="cluster">
<title>cluster_OverviewPageModule</title>
<polygon fill="none" stroke="black" stroke-dasharray="1,5" points="8,-32.8 8,-157.8 350,-157.8 350,-32.8 8,-32.8"/>
</g>
<g id="clust4" class="cluster">
<title>cluster_OverviewPageModule_imports</title>
<polygon fill="none" stroke="black" points="138,-40.8 138,-92.8 342,-92.8 342,-40.8 138,-40.8"/>
</g>
<g id="clust2" class="cluster">
<title>cluster_OverviewPageModule_declarations</title>
<polygon fill="none" stroke="black" points="16,-40.8 16,-92.8 130,-92.8 130,-40.8 16,-40.8"/>
</g>
<!-- OverviewPage -->
<g id="node1" class="node">
<title>OverviewPage</title>
<polygon fill="#ffffb3" stroke="black" points="122.41,-84.8 23.59,-84.8 23.59,-48.8 122.41,-48.8 122.41,-84.8"/>
<text text-anchor="middle" x="73" y="-62.6" font-family="Times,serif" font-size="14.00">OverviewPage</text>
</g>
<!-- OverviewPageModule -->
<g id="node2" class="node">
<title>OverviewPageModule</title>
<polygon fill="#8dd3c7" stroke="black" points="233.96,-149.8 230.96,-153.8 209.96,-153.8 206.96,-149.8 92.04,-149.8 92.04,-113.8 233.96,-113.8 233.96,-149.8"/>
<text text-anchor="middle" x="163" y="-127.6" font-family="Times,serif" font-size="14.00">OverviewPageModule</text>
</g>
<!-- OverviewPage&#45;&gt;OverviewPageModule -->
<g id="edge1" class="edge">
<title>OverviewPage&#45;&gt;OverviewPageModule</title>
<path fill="none" stroke="black" d="M107.11,-84.91C107.11,-84.91 107.11,-103.79 107.11,-103.79"/>
<polygon fill="black" stroke="black" points="103.61,-103.79 107.11,-113.79 110.61,-103.79 103.61,-103.79"/>
</g>
<!-- OverviewPageRoutingModule -->
<g id="node3" class="node">
<title>OverviewPageRoutingModule</title>
<polygon fill="#8dd3c7" stroke="black" points="333.57,-84.8 330.57,-88.8 309.57,-88.8 306.57,-84.8 146.43,-84.8 146.43,-48.8 333.57,-48.8 333.57,-84.8"/>
<text text-anchor="middle" x="240" y="-62.6" font-family="Times,serif" font-size="14.00">OverviewPageRoutingModule</text>
</g>
<!-- OverviewPageRoutingModule&#45;&gt;OverviewPageModule -->
<g id="edge2" class="edge">
<title>OverviewPageRoutingModule&#45;&gt;OverviewPageModule</title>
<path fill="none" stroke="black" d="M190.22,-84.91C190.22,-84.91 190.22,-103.79 190.22,-103.79"/>
<polygon fill="black" stroke="black" points="186.72,-103.79 190.22,-113.79 193.72,-103.79 186.72,-103.79"/>
</g>
</g>
</svg>
