<?xml version="1.0" encoding="UTF-8" standalone="no"?>
<!DOCTYPE svg PUBLIC "-//W3C//DTD SVG 1.1//EN"
 "http://www.w3.org/Graphics/SVG/1.1/DTD/svg11.dtd">
<!-- Generated by graphviz version 2.47.3 (20210619.1520)
 -->
<!-- Title: dependencies Pages: 1 -->
<svg width="523pt" height="174pt"
 viewBox="0.00 0.00 523.00 173.80" xmlns="http://www.w3.org/2000/svg" xmlns:xlink="http://www.w3.org/1999/xlink">
<g id="graph0" class="graph" transform="scale(1 1) rotate(0) translate(4 169.8)">
<title>dependencies</title>
<polygon fill="white" stroke="transparent" points="-4,4 -4,-169.8 519,-169.8 519,4 -4,4"/>
<text text-anchor="middle" x="257.5" y="-8.2" font-family="sans-serif" font-size="14.00">dependencies</text>
<g id="clust1" class="cluster">
<title>cluster_AccountPageModule</title>
<polygon fill="none" stroke="black" stroke-dasharray="1,5" points="8,-32.8 8,-157.8 507,-157.8 507,-32.8 8,-32.8"/>
</g>
<g id="clust2" class="cluster">
<title>cluster_AccountPageModule_declarations</title>
<polygon fill="none" stroke="black" points="393,-40.8 393,-92.8 499,-92.8 499,-40.8 393,-40.8"/>
</g>
<g id="clust4" class="cluster">
<title>cluster_AccountPageModule_imports</title>
<polygon fill="none" stroke="black" points="16,-40.8 16,-92.8 385,-92.8 385,-40.8 16,-40.8"/>
</g>
<!-- AccountPage -->
<g id="node1" class="node">
<title>AccountPage</title>
<polygon fill="#ffffb3" stroke="black" points="491.14,-84.8 400.86,-84.8 400.86,-48.8 491.14,-48.8 491.14,-84.8"/>
<text text-anchor="middle" x="446" y="-62.6" font-family="Times,serif" font-size="14.00">AccountPage</text>
</g>
<!-- AccountPageModule -->
<g id="node2" class="node">
<title>AccountPageModule</title>
<polygon fill="#8dd3c7" stroke="black" points="354.19,-149.8 351.19,-153.8 330.19,-153.8 327.19,-149.8 219.81,-149.8 219.81,-113.8 354.19,-113.8 354.19,-149.8"/>
<text text-anchor="middle" x="287" y="-127.6" font-family="Times,serif" font-size="14.00">AccountPageModule</text>
</g>
<!-- AccountPage&#45;&gt;AccountPageModule -->
<g id="edge1" class="edge">
<title>AccountPage&#45;&gt;AccountPageModule</title>
<path fill="none" stroke="black" d="M446,-84.91C446,-104.14 446,-131.8 446,-131.8 446,-131.8 364.43,-131.8 364.43,-131.8"/>
<polygon fill="black" stroke="black" points="364.43,-128.3 354.43,-131.8 364.43,-135.3 364.43,-128.3"/>
</g>
<!-- AccountPageRoutingModule -->
<g id="node3" class="node">
<title>AccountPageRoutingModule</title>
<polygon fill="#8dd3c7" stroke="black" points="376.81,-84.8 373.81,-88.8 352.81,-88.8 349.81,-84.8 197.19,-84.8 197.19,-48.8 376.81,-48.8 376.81,-84.8"/>
<text text-anchor="middle" x="287" y="-62.6" font-family="Times,serif" font-size="14.00">AccountPageRoutingModule</text>
</g>
<!-- AccountPageRoutingModule&#45;&gt;AccountPageModule -->
<g id="edge2" class="edge">
<title>AccountPageRoutingModule&#45;&gt;AccountPageModule</title>
<path fill="none" stroke="black" d="M287,-84.91C287,-84.91 287,-103.79 287,-103.79"/>
<polygon fill="black" stroke="black" points="283.5,-103.79 287,-113.79 290.5,-103.79 283.5,-103.79"/>
</g>
<!-- OverviewHeaderModule -->
<g id="node4" class="node">
<title>OverviewHeaderModule</title>
<polygon fill="#8dd3c7" stroke="black" points="179.65,-84.8 176.65,-88.8 155.65,-88.8 152.65,-84.8 24.35,-84.8 24.35,-48.8 179.65,-48.8 179.65,-84.8"/>
<text text-anchor="middle" x="102" y="-62.6" font-family="Times,serif" font-size="14.00">OverviewHeaderModule</text>
</g>
<!-- OverviewHeaderModule&#45;&gt;AccountPageModule -->
<g id="edge3" class="edge">
<title>OverviewHeaderModule&#45;&gt;AccountPageModule</title>
<path fill="none" stroke="black" d="M102,-84.91C102,-104.14 102,-131.8 102,-131.8 102,-131.8 209.69,-131.8 209.69,-131.8"/>
<polygon fill="black" stroke="black" points="209.69,-135.3 219.69,-131.8 209.69,-128.3 209.69,-135.3"/>
</g>
</g>
</svg>
