<?xml version="1.0" encoding="UTF-8" standalone="no"?>
<!DOCTYPE svg PUBLIC "-//W3C//DTD SVG 1.1//EN"
 "http://www.w3.org/Graphics/SVG/1.1/DTD/svg11.dtd">
<!-- Generated by graphviz version 2.47.3 (20210619.1520)
 -->
<!-- Title: dependencies Pages: 1 -->
<svg width="559pt" height="174pt"
 viewBox="0.00 0.00 559.00 173.80" xmlns="http://www.w3.org/2000/svg" xmlns:xlink="http://www.w3.org/1999/xlink">
<g id="graph0" class="graph" transform="scale(1 1) rotate(0) translate(4 169.8)">
<title>dependencies</title>
<polygon fill="white" stroke="transparent" points="-4,4 -4,-169.8 555,-169.8 555,4 -4,4"/>
<text text-anchor="middle" x="275.5" y="-8.2" font-family="sans-serif" font-size="14.00">dependencies</text>
<g id="clust1" class="cluster">
<title>cluster_EditSubjectPageModule</title>
<polygon fill="none" stroke="black" stroke-dasharray="1,5" points="8,-32.8 8,-157.8 543,-157.8 543,-32.8 8,-32.8"/>
</g>
<g id="clust2" class="cluster">
<title>cluster_EditSubjectPageModule_declarations</title>
<polygon fill="none" stroke="black" points="411,-40.8 411,-92.8 535,-92.8 535,-40.8 411,-40.8"/>
</g>
<g id="clust4" class="cluster">
<title>cluster_EditSubjectPageModule_imports</title>
<polygon fill="none" stroke="black" points="16,-40.8 16,-92.8 403,-92.8 403,-40.8 16,-40.8"/>
</g>
<!-- EditSubjectPage -->
<g id="node1" class="node">
<title>EditSubjectPage</title>
<polygon fill="#ffffb3" stroke="black" points="527.04,-84.8 418.96,-84.8 418.96,-48.8 527.04,-48.8 527.04,-84.8"/>
<text text-anchor="middle" x="473" y="-62.6" font-family="Times,serif" font-size="14.00">EditSubjectPage</text>
</g>
<!-- EditSubjectPageModule -->
<g id="node2" class="node">
<title>EditSubjectPageModule</title>
<polygon fill="#8dd3c7" stroke="black" points="372.09,-149.8 369.09,-153.8 348.09,-153.8 345.09,-149.8 219.91,-149.8 219.91,-113.8 372.09,-113.8 372.09,-149.8"/>
<text text-anchor="middle" x="296" y="-127.6" font-family="Times,serif" font-size="14.00">EditSubjectPageModule</text>
</g>
<!-- EditSubjectPage&#45;&gt;EditSubjectPageModule -->
<g id="edge1" class="edge">
<title>EditSubjectPage&#45;&gt;EditSubjectPageModule</title>
<path fill="none" stroke="black" d="M473,-84.91C473,-104.14 473,-131.8 473,-131.8 473,-131.8 382.09,-131.8 382.09,-131.8"/>
<polygon fill="black" stroke="black" points="382.09,-128.3 372.09,-131.8 382.09,-135.3 382.09,-128.3"/>
</g>
<!-- EditSubjectPageRoutingModule -->
<g id="node3" class="node">
<title>EditSubjectPageRoutingModule</title>
<polygon fill="#8dd3c7" stroke="black" points="394.71,-84.8 391.71,-88.8 370.71,-88.8 367.71,-84.8 197.29,-84.8 197.29,-48.8 394.71,-48.8 394.71,-84.8"/>
<text text-anchor="middle" x="296" y="-62.6" font-family="Times,serif" font-size="14.00">EditSubjectPageRoutingModule</text>
</g>
<!-- EditSubjectPageRoutingModule&#45;&gt;EditSubjectPageModule -->
<g id="edge2" class="edge">
<title>EditSubjectPageRoutingModule&#45;&gt;EditSubjectPageModule</title>
<path fill="none" stroke="black" d="M296,-84.91C296,-84.91 296,-103.79 296,-103.79"/>
<polygon fill="black" stroke="black" points="292.5,-103.79 296,-113.79 299.5,-103.79 292.5,-103.79"/>
</g>
<!-- OverviewHeaderModule -->
<g id="node4" class="node">
<title>OverviewHeaderModule</title>
<polygon fill="#8dd3c7" stroke="black" points="179.65,-84.8 176.65,-88.8 155.65,-88.8 152.65,-84.8 24.35,-84.8 24.35,-48.8 179.65,-48.8 179.65,-84.8"/>
<text text-anchor="middle" x="102" y="-62.6" font-family="Times,serif" font-size="14.00">OverviewHeaderModule</text>
</g>
<!-- OverviewHeaderModule&#45;&gt;EditSubjectPageModule -->
<g id="edge3" class="edge">
<title>OverviewHeaderModule&#45;&gt;EditSubjectPageModule</title>
<path fill="none" stroke="black" d="M102,-84.91C102,-104.14 102,-131.8 102,-131.8 102,-131.8 209.88,-131.8 209.88,-131.8"/>
<polygon fill="black" stroke="black" points="209.88,-135.3 219.88,-131.8 209.88,-128.3 209.88,-135.3"/>
</g>
</g>
</svg>
