<?xml version="1.0" encoding="UTF-8" standalone="no"?>
<!DOCTYPE svg PUBLIC "-//W3C//DTD SVG 1.1//EN"
 "http://www.w3.org/Graphics/SVG/1.1/DTD/svg11.dtd">
<!-- Generated by graphviz version 2.47.3 (20210619.1520)
 -->
<!-- Title: dependencies Pages: 1 -->
<svg width="346pt" height="247pt"
 viewBox="0.00 0.00 346.00 246.80" xmlns="http://www.w3.org/2000/svg" xmlns:xlink="http://www.w3.org/1999/xlink">
<g id="graph0" class="graph" transform="scale(1 1) rotate(0) translate(4 242.8)">
<title>dependencies</title>
<polygon fill="white" stroke="transparent" points="-4,4 -4,-242.8 342,-242.8 342,4 -4,4"/>
<text text-anchor="middle" x="169" y="-8.2" font-family="sans-serif" font-size="14.00">dependencies</text>
<g id="clust1" class="cluster">
<title>cluster_OverviewHeaderModule</title>
<polygon fill="none" stroke="black" stroke-dasharray="1,5" points="8,-32.8 8,-230.8 330,-230.8 330,-32.8 8,-32.8"/>
</g>
<g id="clust5" class="cluster">
<title>cluster_OverviewHeaderModule_exports</title>
<polygon fill="none" stroke="black" points="71,-170.8 71,-222.8 267,-222.8 267,-170.8 71,-170.8"/>
</g>
<g id="clust2" class="cluster">
<title>cluster_OverviewHeaderModule_declarations</title>
<polygon fill="none" stroke="black" points="130,-40.8 130,-92.8 322,-92.8 322,-40.8 130,-40.8"/>
</g>
<g id="clust4" class="cluster">
<title>cluster_OverviewHeaderModule_imports</title>
<polygon fill="none" stroke="black" points="16,-40.8 16,-92.8 122,-92.8 122,-40.8 16,-40.8"/>
</g>
<!-- OverviewHeaderComponent -->
<g id="node1" class="node">
<title>OverviewHeaderComponent</title>
<polygon fill="#ffffb3" stroke="black" points="314.44,-84.8 137.56,-84.8 137.56,-48.8 314.44,-48.8 314.44,-84.8"/>
<text text-anchor="middle" x="226" y="-62.6" font-family="Times,serif" font-size="14.00">OverviewHeaderComponent</text>
</g>
<!-- OverviewHeaderModule -->
<g id="node2" class="node">
<title>OverviewHeaderModule</title>
<polygon fill="#8dd3c7" stroke="black" points="246.65,-149.8 243.65,-153.8 222.65,-153.8 219.65,-149.8 91.35,-149.8 91.35,-113.8 246.65,-113.8 246.65,-149.8"/>
<text text-anchor="middle" x="169" y="-127.6" font-family="Times,serif" font-size="14.00">OverviewHeaderModule</text>
</g>
<!-- OverviewHeaderComponent&#45;&gt;OverviewHeaderModule -->
<g id="edge1" class="edge">
<title>OverviewHeaderComponent&#45;&gt;OverviewHeaderModule</title>
<path fill="none" stroke="black" d="M192.05,-84.91C192.05,-84.91 192.05,-103.79 192.05,-103.79"/>
<polygon fill="black" stroke="black" points="188.55,-103.79 192.05,-113.79 195.55,-103.79 188.55,-103.79"/>
</g>
<!-- OverviewHeaderComponent  -->
<g id="node4" class="node">
<title>OverviewHeaderComponent </title>
<polygon fill="#fb8072" stroke="black" points="259.44,-214.8 78.56,-214.8 78.56,-178.8 259.44,-178.8 259.44,-214.8"/>
<text text-anchor="middle" x="169" y="-192.6" font-family="Times,serif" font-size="14.00">OverviewHeaderComponent </text>
</g>
<!-- OverviewHeaderModule&#45;&gt;OverviewHeaderComponent  -->
<g id="edge3" class="edge">
<title>OverviewHeaderModule&#45;&gt;OverviewHeaderComponent </title>
<path fill="none" stroke="black" stroke-dasharray="5,2" d="M169,-149.91C169,-149.91 169,-168.79 169,-168.79"/>
<polygon fill="black" stroke="black" points="165.5,-168.79 169,-178.79 172.5,-168.79 165.5,-168.79"/>
</g>
<!-- LogoModule -->
<g id="node3" class="node">
<title>LogoModule</title>
<polygon fill="#8dd3c7" stroke="black" points="113.6,-84.8 110.6,-88.8 89.6,-88.8 86.6,-84.8 24.4,-84.8 24.4,-48.8 113.6,-48.8 113.6,-84.8"/>
<text text-anchor="middle" x="69" y="-62.6" font-family="Times,serif" font-size="14.00">LogoModule</text>
</g>
<!-- LogoModule&#45;&gt;OverviewHeaderModule -->
<g id="edge2" class="edge">
<title>LogoModule&#45;&gt;OverviewHeaderModule</title>
<path fill="none" stroke="black" d="M102.49,-84.91C102.49,-84.91 102.49,-103.79 102.49,-103.79"/>
<polygon fill="black" stroke="black" points="98.99,-103.79 102.49,-113.79 105.99,-103.79 98.99,-103.79"/>
</g>
</g>
</svg>
