<?xml version="1.0" encoding="UTF-8" standalone="no"?>
<!DOCTYPE svg PUBLIC "-//W3C//DTD SVG 1.1//EN"
 "http://www.w3.org/Graphics/SVG/1.1/DTD/svg11.dtd">
<!-- Generated by graphviz version 2.47.3 (20210619.1520)
 -->
<!-- Title: dependencies Pages: 1 -->
<svg width="429pt" height="174pt"
 viewBox="0.00 0.00 429.00 173.80" xmlns="http://www.w3.org/2000/svg" xmlns:xlink="http://www.w3.org/1999/xlink">
<g id="graph0" class="graph" transform="scale(1 1) rotate(0) translate(4 169.8)">
<title>dependencies</title>
<polygon fill="white" stroke="transparent" points="-4,4 -4,-169.8 425,-169.8 425,4 -4,4"/>
<text text-anchor="middle" x="210.5" y="-8.2" font-family="sans-serif" font-size="14.00">dependencies</text>
<g id="clust1" class="cluster">
<title>cluster_LoginPageModule</title>
<polygon fill="none" stroke="black" stroke-dasharray="1,5" points="8,-32.8 8,-157.8 413,-157.8 413,-32.8 8,-32.8"/>
</g>
<g id="clust4" class="cluster">
<title>cluster_LoginPageModule_imports</title>
<polygon fill="none" stroke="black" points="116,-40.8 116,-92.8 405,-92.8 405,-40.8 116,-40.8"/>
</g>
<g id="clust2" class="cluster">
<title>cluster_LoginPageModule_declarations</title>
<polygon fill="none" stroke="black" points="16,-40.8 16,-92.8 108,-92.8 108,-40.8 16,-40.8"/>
</g>
<!-- LoginPage -->
<g id="node1" class="node">
<title>LoginPage</title>
<polygon fill="#ffffb3" stroke="black" points="100.16,-84.8 23.84,-84.8 23.84,-48.8 100.16,-48.8 100.16,-84.8"/>
<text text-anchor="middle" x="62" y="-62.6" font-family="Times,serif" font-size="14.00">LoginPage</text>
</g>
<!-- LoginPageModule -->
<g id="node2" class="node">
<title>LoginPageModule</title>
<polygon fill="#8dd3c7" stroke="black" points="229.2,-149.8 226.2,-153.8 205.2,-153.8 202.2,-149.8 108.8,-149.8 108.8,-113.8 229.2,-113.8 229.2,-149.8"/>
<text text-anchor="middle" x="169" y="-127.6" font-family="Times,serif" font-size="14.00">LoginPageModule</text>
</g>
<!-- LoginPage&#45;&gt;LoginPageModule -->
<g id="edge1" class="edge">
<title>LoginPage&#45;&gt;LoginPageModule</title>
<path fill="none" stroke="black" d="M100.27,-66.8C109.46,-66.8 116.67,-66.8 116.67,-66.8 116.67,-66.8 116.67,-103.69 116.67,-103.69"/>
<polygon fill="black" stroke="black" points="113.17,-103.69 116.67,-113.69 120.17,-103.69 113.17,-103.69"/>
</g>
<!-- LoginPageRoutingModule -->
<g id="node3" class="node">
<title>LoginPageRoutingModule</title>
<polygon fill="#8dd3c7" stroke="black" points="396.82,-84.8 393.82,-88.8 372.82,-88.8 369.82,-84.8 231.18,-84.8 231.18,-48.8 396.82,-48.8 396.82,-84.8"/>
<text text-anchor="middle" x="314" y="-62.6" font-family="Times,serif" font-size="14.00">LoginPageRoutingModule</text>
</g>
<!-- LoginPageRoutingModule&#45;&gt;LoginPageModule -->
<g id="edge2" class="edge">
<title>LoginPageRoutingModule&#45;&gt;LoginPageModule</title>
<path fill="none" stroke="black" d="M231.24,-66.8C225.15,-66.8 221.33,-66.8 221.33,-66.8 221.33,-66.8 221.33,-103.69 221.33,-103.69"/>
<polygon fill="black" stroke="black" points="217.83,-103.69 221.33,-113.69 224.83,-103.69 217.83,-103.69"/>
</g>
<!-- LogoModule -->
<g id="node4" class="node">
<title>LogoModule</title>
<polygon fill="#8dd3c7" stroke="black" points="213.6,-84.8 210.6,-88.8 189.6,-88.8 186.6,-84.8 124.4,-84.8 124.4,-48.8 213.6,-48.8 213.6,-84.8"/>
<text text-anchor="middle" x="169" y="-62.6" font-family="Times,serif" font-size="14.00">LogoModule</text>
</g>
<!-- LogoModule&#45;&gt;LoginPageModule -->
<g id="edge3" class="edge">
<title>LogoModule&#45;&gt;LoginPageModule</title>
<path fill="none" stroke="black" d="M169,-84.91C169,-84.91 169,-103.79 169,-103.79"/>
<polygon fill="black" stroke="black" points="165.5,-103.79 169,-113.79 172.5,-103.79 165.5,-103.79"/>
</g>
</g>
</svg>
