<?xml version="1.0" encoding="UTF-8" standalone="no"?>
<!DOCTYPE svg PUBLIC "-//W3C//DTD SVG 1.1//EN"
 "http://www.w3.org/Graphics/SVG/1.1/DTD/svg11.dtd">
<!-- Generated by graphviz version 2.47.3 (20210619.1520)
 -->
<!-- Title: dependencies Pages: 1 -->
<svg width="486pt" height="174pt"
 viewBox="0.00 0.00 486.00 173.80" xmlns="http://www.w3.org/2000/svg" xmlns:xlink="http://www.w3.org/1999/xlink">
<g id="graph0" class="graph" transform="scale(1 1) rotate(0) translate(4 169.8)">
<title>dependencies</title>
<polygon fill="white" stroke="transparent" points="-4,4 -4,-169.8 482,-169.8 482,4 -4,4"/>
<text text-anchor="middle" x="239" y="-8.2" font-family="sans-serif" font-size="14.00">dependencies</text>
<g id="clust1" class="cluster">
<title>cluster_GyikPageModule</title>
<polygon fill="none" stroke="black" stroke-dasharray="1,5" points="8,-32.8 8,-157.8 470,-157.8 470,-32.8 8,-32.8"/>
</g>
<g id="clust4" class="cluster">
<title>cluster_GyikPageModule_imports</title>
<polygon fill="none" stroke="black" points="112,-40.8 112,-92.8 462,-92.8 462,-40.8 112,-40.8"/>
</g>
<g id="clust2" class="cluster">
<title>cluster_GyikPageModule_declarations</title>
<polygon fill="none" stroke="black" points="16,-40.8 16,-92.8 104,-92.8 104,-40.8 16,-40.8"/>
</g>
<!-- GyikPage -->
<g id="node1" class="node">
<title>GyikPage</title>
<polygon fill="#ffffb3" stroke="black" points="95.71,-84.8 24.29,-84.8 24.29,-48.8 95.71,-48.8 95.71,-84.8"/>
<text text-anchor="middle" x="60" y="-62.6" font-family="Times,serif" font-size="14.00">GyikPage</text>
</g>
<!-- GyikPageModule -->
<g id="node2" class="node">
<title>GyikPageModule</title>
<polygon fill="#8dd3c7" stroke="black" points="255.26,-149.8 252.26,-153.8 231.26,-153.8 228.26,-149.8 140.74,-149.8 140.74,-113.8 255.26,-113.8 255.26,-149.8"/>
<text text-anchor="middle" x="198" y="-127.6" font-family="Times,serif" font-size="14.00">GyikPageModule</text>
</g>
<!-- GyikPage&#45;&gt;GyikPageModule -->
<g id="edge1" class="edge">
<title>GyikPage&#45;&gt;GyikPageModule</title>
<path fill="none" stroke="black" d="M60,-84.91C60,-104.14 60,-131.8 60,-131.8 60,-131.8 130.67,-131.8 130.67,-131.8"/>
<polygon fill="black" stroke="black" points="130.67,-135.3 140.67,-131.8 130.67,-128.3 130.67,-135.3"/>
</g>
<!-- GyikPageRoutingModule -->
<g id="node3" class="node">
<title>GyikPageRoutingModule</title>
<polygon fill="#8dd3c7" stroke="black" points="453.88,-84.8 450.88,-88.8 429.88,-88.8 426.88,-84.8 294.12,-84.8 294.12,-48.8 453.88,-48.8 453.88,-84.8"/>
<text text-anchor="middle" x="374" y="-62.6" font-family="Times,serif" font-size="14.00">GyikPageRoutingModule</text>
</g>
<!-- GyikPageRoutingModule&#45;&gt;GyikPageModule -->
<g id="edge2" class="edge">
<title>GyikPageRoutingModule&#45;&gt;GyikPageModule</title>
<path fill="none" stroke="black" d="M374,-84.91C374,-104.14 374,-131.8 374,-131.8 374,-131.8 265.63,-131.8 265.63,-131.8"/>
<polygon fill="black" stroke="black" points="265.63,-128.3 255.63,-131.8 265.63,-135.3 265.63,-128.3"/>
</g>
<!-- OverviewHeaderModule -->
<g id="node4" class="node">
<title>OverviewHeaderModule</title>
<polygon fill="#8dd3c7" stroke="black" points="275.65,-84.8 272.65,-88.8 251.65,-88.8 248.65,-84.8 120.35,-84.8 120.35,-48.8 275.65,-48.8 275.65,-84.8"/>
<text text-anchor="middle" x="198" y="-62.6" font-family="Times,serif" font-size="14.00">OverviewHeaderModule</text>
</g>
<!-- OverviewHeaderModule&#45;&gt;GyikPageModule -->
<g id="edge3" class="edge">
<title>OverviewHeaderModule&#45;&gt;GyikPageModule</title>
<path fill="none" stroke="black" d="M198,-84.91C198,-84.91 198,-103.79 198,-103.79"/>
<polygon fill="black" stroke="black" points="194.5,-103.79 198,-113.79 201.5,-103.79 194.5,-103.79"/>
</g>
</g>
</svg>
