<?xml version="1.0" encoding="UTF-8" standalone="no"?>
<!DOCTYPE svg PUBLIC "-//W3C//DTD SVG 1.1//EN"
 "http://www.w3.org/Graphics/SVG/1.1/DTD/svg11.dtd">
<!-- Generated by graphviz version 2.47.3 (20210619.1520)
 -->
<!-- Title: dependencies Pages: 1 -->
<svg width="503pt" height="174pt"
 viewBox="0.00 0.00 503.00 173.80" xmlns="http://www.w3.org/2000/svg" xmlns:xlink="http://www.w3.org/1999/xlink">
<g id="graph0" class="graph" transform="scale(1 1) rotate(0) translate(4 169.8)">
<title>dependencies</title>
<polygon fill="white" stroke="transparent" points="-4,4 -4,-169.8 499,-169.8 499,4 -4,4"/>
<text text-anchor="middle" x="247.5" y="-8.2" font-family="sans-serif" font-size="14.00">dependencies</text>
<g id="clust1" class="cluster">
<title>cluster_VerifyEmailPageModule</title>
<polygon fill="none" stroke="black" stroke-dasharray="1,5" points="8,-32.8 8,-157.8 487,-157.8 487,-32.8 8,-32.8"/>
</g>
<g id="clust2" class="cluster">
<title>cluster_VerifyEmailPageModule_declarations</title>
<polygon fill="none" stroke="black" points="349,-40.8 349,-92.8 479,-92.8 479,-40.8 349,-40.8"/>
</g>
<g id="clust4" class="cluster">
<title>cluster_VerifyEmailPageModule_imports</title>
<polygon fill="none" stroke="black" points="16,-40.8 16,-92.8 341,-92.8 341,-40.8 16,-40.8"/>
</g>
<!-- VerifyEmailPage -->
<g id="node1" class="node">
<title>VerifyEmailPage</title>
<polygon fill="#ffffb3" stroke="black" points="470.68,-84.8 357.32,-84.8 357.32,-48.8 470.68,-48.8 470.68,-84.8"/>
<text text-anchor="middle" x="414" y="-62.6" font-family="Times,serif" font-size="14.00">VerifyEmailPage</text>
</g>
<!-- VerifyEmailPageModule -->
<g id="node2" class="node">
<title>VerifyEmailPageModule</title>
<polygon fill="#8dd3c7" stroke="black" points="366.23,-149.8 363.23,-153.8 342.23,-153.8 339.23,-149.8 209.77,-149.8 209.77,-113.8 366.23,-113.8 366.23,-149.8"/>
<text text-anchor="middle" x="288" y="-127.6" font-family="Times,serif" font-size="14.00">VerifyEmailPageModule</text>
</g>
<!-- VerifyEmailPage&#45;&gt;VerifyEmailPageModule -->
<g id="edge1" class="edge">
<title>VerifyEmailPage&#45;&gt;VerifyEmailPageModule</title>
<path fill="none" stroke="black" d="M361.89,-84.91C361.89,-84.91 361.89,-103.79 361.89,-103.79"/>
<polygon fill="black" stroke="black" points="358.39,-103.79 361.89,-113.79 365.39,-103.79 358.39,-103.79"/>
</g>
<!-- LogoModule -->
<g id="node3" class="node">
<title>LogoModule</title>
<polygon fill="#8dd3c7" stroke="black" points="332.6,-84.8 329.6,-88.8 308.6,-88.8 305.6,-84.8 243.4,-84.8 243.4,-48.8 332.6,-48.8 332.6,-84.8"/>
<text text-anchor="middle" x="288" y="-62.6" font-family="Times,serif" font-size="14.00">LogoModule</text>
</g>
<!-- LogoModule&#45;&gt;VerifyEmailPageModule -->
<g id="edge2" class="edge">
<title>LogoModule&#45;&gt;VerifyEmailPageModule</title>
<path fill="none" stroke="black" d="M288,-84.91C288,-84.91 288,-103.79 288,-103.79"/>
<polygon fill="black" stroke="black" points="284.5,-103.79 288,-113.79 291.5,-103.79 284.5,-103.79"/>
</g>
<!-- VerifyEmailPageRoutingModule -->
<g id="node4" class="node">
<title>VerifyEmailPageRoutingModule</title>
<polygon fill="#8dd3c7" stroke="black" points="225.85,-84.8 222.85,-88.8 201.85,-88.8 198.85,-84.8 24.15,-84.8 24.15,-48.8 225.85,-48.8 225.85,-84.8"/>
<text text-anchor="middle" x="125" y="-62.6" font-family="Times,serif" font-size="14.00">VerifyEmailPageRoutingModule</text>
</g>
<!-- VerifyEmailPageRoutingModule&#45;&gt;VerifyEmailPageModule -->
<g id="edge3" class="edge">
<title>VerifyEmailPageRoutingModule&#45;&gt;VerifyEmailPageModule</title>
<path fill="none" stroke="black" d="M217.78,-84.91C217.78,-84.91 217.78,-103.79 217.78,-103.79"/>
<polygon fill="black" stroke="black" points="214.28,-103.79 217.78,-113.79 221.28,-103.79 214.28,-103.79"/>
</g>
</g>
</svg>
