<?xml version="1.0" encoding="UTF-8" standalone="no"?>
<!DOCTYPE svg PUBLIC "-//W3C//DTD SVG 1.1//EN"
 "http://www.w3.org/Graphics/SVG/1.1/DTD/svg11.dtd">
<!-- Generated by graphviz version 2.47.3 (20210619.1520)
 -->
<!-- Title: dependencies Pages: 1 -->
<svg width="456pt" height="174pt"
 viewBox="0.00 0.00 456.00 173.80" xmlns="http://www.w3.org/2000/svg" xmlns:xlink="http://www.w3.org/1999/xlink">
<g id="graph0" class="graph" transform="scale(1 1) rotate(0) translate(4 169.8)">
<title>dependencies</title>
<polygon fill="white" stroke="transparent" points="-4,4 -4,-169.8 452,-169.8 452,4 -4,4"/>
<text text-anchor="middle" x="224" y="-8.2" font-family="sans-serif" font-size="14.00">dependencies</text>
<g id="clust1" class="cluster">
<title>cluster_RegisterPageModule</title>
<polygon fill="none" stroke="black" stroke-dasharray="1,5" points="8,-32.8 8,-157.8 440,-157.8 440,-32.8 8,-32.8"/>
</g>
<g id="clust2" class="cluster">
<title>cluster_RegisterPageModule_declarations</title>
<polygon fill="none" stroke="black" points="326,-40.8 326,-92.8 432,-92.8 432,-40.8 326,-40.8"/>
</g>
<g id="clust4" class="cluster">
<title>cluster_RegisterPageModule_imports</title>
<polygon fill="none" stroke="black" points="16,-40.8 16,-92.8 318,-92.8 318,-40.8 16,-40.8"/>
</g>
<!-- RegisterPage -->
<g id="node1" class="node">
<title>RegisterPage</title>
<polygon fill="#ffffb3" stroke="black" points="423.86,-84.8 334.14,-84.8 334.14,-48.8 423.86,-48.8 423.86,-84.8"/>
<text text-anchor="middle" x="379" y="-62.6" font-family="Times,serif" font-size="14.00">RegisterPage</text>
</g>
<!-- RegisterPageModule -->
<g id="node2" class="node">
<title>RegisterPageModule</title>
<polygon fill="#8dd3c7" stroke="black" points="331.91,-149.8 328.91,-153.8 307.91,-153.8 304.91,-149.8 198.09,-149.8 198.09,-113.8 331.91,-113.8 331.91,-149.8"/>
<text text-anchor="middle" x="265" y="-127.6" font-family="Times,serif" font-size="14.00">RegisterPageModule</text>
</g>
<!-- RegisterPage&#45;&gt;RegisterPageModule -->
<g id="edge1" class="edge">
<title>RegisterPage&#45;&gt;RegisterPageModule</title>
<path fill="none" stroke="black" d="M333.87,-66.8C326.19,-66.8 320.63,-66.8 320.63,-66.8 320.63,-66.8 320.63,-103.69 320.63,-103.69"/>
<polygon fill="black" stroke="black" points="317.13,-103.69 320.63,-113.69 324.13,-103.69 317.13,-103.69"/>
</g>
<!-- LogoModule -->
<g id="node3" class="node">
<title>LogoModule</title>
<polygon fill="#8dd3c7" stroke="black" points="309.6,-84.8 306.6,-88.8 285.6,-88.8 282.6,-84.8 220.4,-84.8 220.4,-48.8 309.6,-48.8 309.6,-84.8"/>
<text text-anchor="middle" x="265" y="-62.6" font-family="Times,serif" font-size="14.00">LogoModule</text>
</g>
<!-- LogoModule&#45;&gt;RegisterPageModule -->
<g id="edge2" class="edge">
<title>LogoModule&#45;&gt;RegisterPageModule</title>
<path fill="none" stroke="black" d="M265,-84.91C265,-84.91 265,-103.79 265,-103.79"/>
<polygon fill="black" stroke="black" points="261.5,-103.79 265,-113.79 268.5,-103.79 261.5,-103.79"/>
</g>
<!-- RegisterPageRoutingModule -->
<g id="node4" class="node">
<title>RegisterPageRoutingModule</title>
<polygon fill="#8dd3c7" stroke="black" points="202.03,-84.8 199.03,-88.8 178.03,-88.8 175.03,-84.8 23.97,-84.8 23.97,-48.8 202.03,-48.8 202.03,-84.8"/>
<text text-anchor="middle" x="113" y="-62.6" font-family="Times,serif" font-size="14.00">RegisterPageRoutingModule</text>
</g>
<!-- RegisterPageRoutingModule&#45;&gt;RegisterPageModule -->
<g id="edge3" class="edge">
<title>RegisterPageRoutingModule&#45;&gt;RegisterPageModule</title>
<path fill="none" stroke="black" d="M202.28,-66.8C207.9,-66.8 211.36,-66.8 211.36,-66.8 211.36,-66.8 211.36,-103.69 211.36,-103.69"/>
<polygon fill="black" stroke="black" points="207.86,-103.69 211.36,-113.69 214.86,-103.69 207.86,-103.69"/>
</g>
</g>
</svg>
