<?xml version="1.0" encoding="UTF-8" standalone="no"?>
<!DOCTYPE svg PUBLIC "-//W3C//DTD SVG 1.1//EN"
 "http://www.w3.org/Graphics/SVG/1.1/DTD/svg11.dtd">
<!-- Generated by graphviz version 2.47.3 (20210619.1520)
 -->
<!-- Title: dependencies Pages: 1 -->
<svg width="388pt" height="174pt"
 viewBox="0.00 0.00 388.00 173.80" xmlns="http://www.w3.org/2000/svg" xmlns:xlink="http://www.w3.org/1999/xlink">
<g id="graph0" class="graph" transform="scale(1 1) rotate(0) translate(4 169.8)">
<title>dependencies</title>
<polygon fill="white" stroke="transparent" points="-4,4 -4,-169.8 384,-169.8 384,4 -4,4"/>
<text text-anchor="middle" x="190" y="-8.2" font-family="sans-serif" font-size="14.00">dependencies</text>
<g id="clust1" class="cluster">
<title>cluster_AddSubjectPageModule</title>
<polygon fill="none" stroke="black" stroke-dasharray="1,5" points="8,-32.8 8,-157.8 372,-157.8 372,-32.8 8,-32.8"/>
</g>
<g id="clust4" class="cluster">
<title>cluster_AddSubjectPageModule_imports</title>
<polygon fill="none" stroke="black" points="150,-40.8 150,-92.8 364,-92.8 364,-40.8 150,-40.8"/>
</g>
<g id="clust2" class="cluster">
<title>cluster_AddSubjectPageModule_declarations</title>
<polygon fill="none" stroke="black" points="16,-40.8 16,-92.8 142,-92.8 142,-40.8 16,-40.8"/>
</g>
<!-- AddSubjectPage -->
<g id="node1" class="node">
<title>AddSubjectPage</title>
<polygon fill="#ffffb3" stroke="black" points="133.81,-84.8 24.19,-84.8 24.19,-48.8 133.81,-48.8 133.81,-84.8"/>
<text text-anchor="middle" x="79" y="-62.6" font-family="Times,serif" font-size="14.00">AddSubjectPage</text>
</g>
<!-- AddSubjectPageModule -->
<g id="node2" class="node">
<title>AddSubjectPageModule</title>
<polygon fill="#8dd3c7" stroke="black" points="250.36,-149.8 247.36,-153.8 226.36,-153.8 223.36,-149.8 97.64,-149.8 97.64,-113.8 250.36,-113.8 250.36,-149.8"/>
<text text-anchor="middle" x="174" y="-127.6" font-family="Times,serif" font-size="14.00">AddSubjectPageModule</text>
</g>
<!-- AddSubjectPage&#45;&gt;AddSubjectPageModule -->
<g id="edge1" class="edge">
<title>AddSubjectPage&#45;&gt;AddSubjectPageModule</title>
<path fill="none" stroke="black" d="M115.61,-84.91C115.61,-84.91 115.61,-103.79 115.61,-103.79"/>
<polygon fill="black" stroke="black" points="112.11,-103.79 115.61,-113.79 119.11,-103.79 112.11,-103.79"/>
</g>
<!-- AddSubjectPageRoutingModule -->
<g id="node3" class="node">
<title>AddSubjectPageRoutingModule</title>
<polygon fill="#8dd3c7" stroke="black" points="355.98,-84.8 352.98,-88.8 331.98,-88.8 328.98,-84.8 158.02,-84.8 158.02,-48.8 355.98,-48.8 355.98,-84.8"/>
<text text-anchor="middle" x="257" y="-62.6" font-family="Times,serif" font-size="14.00">AddSubjectPageRoutingModule</text>
</g>
<!-- AddSubjectPageRoutingModule&#45;&gt;AddSubjectPageModule -->
<g id="edge2" class="edge">
<title>AddSubjectPageRoutingModule&#45;&gt;AddSubjectPageModule</title>
<path fill="none" stroke="black" d="M204.22,-84.91C204.22,-84.91 204.22,-103.79 204.22,-103.79"/>
<polygon fill="black" stroke="black" points="200.72,-103.79 204.22,-113.79 207.72,-103.79 200.72,-103.79"/>
</g>
</g>
</svg>
