<?xml version="1.0" encoding="UTF-8" standalone="no"?>
<!DOCTYPE svg PUBLIC "-//W3C//DTD SVG 1.1//EN"
 "http://www.w3.org/Graphics/SVG/1.1/DTD/svg11.dtd">
<!-- Generated by graphviz version 2.47.3 (20210619.1520)
 -->
<!-- Title: dependencies Pages: 1 -->
<svg width="530pt" height="174pt"
 viewBox="0.00 0.00 530.00 173.80" xmlns="http://www.w3.org/2000/svg" xmlns:xlink="http://www.w3.org/1999/xlink">
<g id="graph0" class="graph" transform="scale(1 1) rotate(0) translate(4 169.8)">
<title>dependencies</title>
<polygon fill="white" stroke="transparent" points="-4,4 -4,-169.8 526,-169.8 526,4 -4,4"/>
<text text-anchor="middle" x="261" y="-8.2" font-family="sans-serif" font-size="14.00">dependencies</text>
<g id="clust1" class="cluster">
<title>cluster_CalendarPageModule</title>
<polygon fill="none" stroke="black" stroke-dasharray="1,5" points="8,-32.8 8,-157.8 514,-157.8 514,-32.8 8,-32.8"/>
</g>
<g id="clust2" class="cluster">
<title>cluster_CalendarPageModule_declarations</title>
<polygon fill="none" stroke="black" points="396,-40.8 396,-92.8 506,-92.8 506,-40.8 396,-40.8"/>
</g>
<g id="clust4" class="cluster">
<title>cluster_CalendarPageModule_imports</title>
<polygon fill="none" stroke="black" points="16,-40.8 16,-92.8 388,-92.8 388,-40.8 16,-40.8"/>
</g>
<!-- CalendarPage -->
<g id="node1" class="node">
<title>CalendarPage</title>
<polygon fill="#ffffb3" stroke="black" points="497.74,-84.8 404.26,-84.8 404.26,-48.8 497.74,-48.8 497.74,-84.8"/>
<text text-anchor="middle" x="451" y="-62.6" font-family="Times,serif" font-size="14.00">CalendarPage</text>
</g>
<!-- CalendarPageModule -->
<g id="node2" class="node">
<title>CalendarPageModule</title>
<polygon fill="#8dd3c7" stroke="black" points="357.79,-149.8 354.79,-153.8 333.79,-153.8 330.79,-149.8 220.21,-149.8 220.21,-113.8 357.79,-113.8 357.79,-149.8"/>
<text text-anchor="middle" x="289" y="-127.6" font-family="Times,serif" font-size="14.00">CalendarPageModule</text>
</g>
<!-- CalendarPage&#45;&gt;CalendarPageModule -->
<g id="edge1" class="edge">
<title>CalendarPage&#45;&gt;CalendarPageModule</title>
<path fill="none" stroke="black" d="M451,-84.91C451,-104.14 451,-131.8 451,-131.8 451,-131.8 367.7,-131.8 367.7,-131.8"/>
<polygon fill="black" stroke="black" points="367.7,-128.3 357.7,-131.8 367.7,-135.3 367.7,-128.3"/>
</g>
<!-- CalendarPageRoutingModule -->
<g id="node3" class="node">
<title>CalendarPageRoutingModule</title>
<polygon fill="#8dd3c7" stroke="black" points="380.41,-84.8 377.41,-88.8 356.41,-88.8 353.41,-84.8 197.59,-84.8 197.59,-48.8 380.41,-48.8 380.41,-84.8"/>
<text text-anchor="middle" x="289" y="-62.6" font-family="Times,serif" font-size="14.00">CalendarPageRoutingModule</text>
</g>
<!-- CalendarPageRoutingModule&#45;&gt;CalendarPageModule -->
<g id="edge2" class="edge">
<title>CalendarPageRoutingModule&#45;&gt;CalendarPageModule</title>
<path fill="none" stroke="black" d="M289,-84.91C289,-84.91 289,-103.79 289,-103.79"/>
<polygon fill="black" stroke="black" points="285.5,-103.79 289,-113.79 292.5,-103.79 285.5,-103.79"/>
</g>
<!-- OverviewHeaderModule -->
<g id="node4" class="node">
<title>OverviewHeaderModule</title>
<polygon fill="#8dd3c7" stroke="black" points="179.65,-84.8 176.65,-88.8 155.65,-88.8 152.65,-84.8 24.35,-84.8 24.35,-48.8 179.65,-48.8 179.65,-84.8"/>
<text text-anchor="middle" x="102" y="-62.6" font-family="Times,serif" font-size="14.00">OverviewHeaderModule</text>
</g>
<!-- OverviewHeaderModule&#45;&gt;CalendarPageModule -->
<g id="edge3" class="edge">
<title>OverviewHeaderModule&#45;&gt;CalendarPageModule</title>
<path fill="none" stroke="black" d="M102,-84.91C102,-104.14 102,-131.8 102,-131.8 102,-131.8 210.16,-131.8 210.16,-131.8"/>
<polygon fill="black" stroke="black" points="210.16,-135.3 220.16,-131.8 210.16,-128.3 210.16,-135.3"/>
</g>
</g>
</svg>
