<?xml version="1.0" encoding="UTF-8" standalone="no"?>
<!DOCTYPE svg PUBLIC "-//W3C//DTD SVG 1.1//EN"
 "http://www.w3.org/Graphics/SVG/1.1/DTD/svg11.dtd">
<!-- Generated by graphviz version 2.47.3 (20210619.1520)
 -->
<!-- Title: dependencies Pages: 1 -->
<svg width="546pt" height="174pt"
 viewBox="0.00 0.00 546.00 173.80" xmlns="http://www.w3.org/2000/svg" xmlns:xlink="http://www.w3.org/1999/xlink">
<g id="graph0" class="graph" transform="scale(1 1) rotate(0) translate(4 169.8)">
<title>dependencies</title>
<polygon fill="white" stroke="transparent" points="-4,4 -4,-169.8 542,-169.8 542,4 -4,4"/>
<text text-anchor="middle" x="269" y="-8.2" font-family="sans-serif" font-size="14.00">dependencies</text>
<g id="clust1" class="cluster">
<title>cluster_CalculatorPageModule</title>
<polygon fill="none" stroke="black" stroke-dasharray="1,5" points="8,-32.8 8,-157.8 530,-157.8 530,-32.8 8,-32.8"/>
</g>
<g id="clust2" class="cluster">
<title>cluster_CalculatorPageModule_declarations</title>
<polygon fill="none" stroke="black" points="404,-40.8 404,-92.8 522,-92.8 522,-40.8 404,-40.8"/>
</g>
<g id="clust4" class="cluster">
<title>cluster_CalculatorPageModule_imports</title>
<polygon fill="none" stroke="black" points="16,-40.8 16,-92.8 396,-92.8 396,-40.8 16,-40.8"/>
</g>
<!-- CalculatorPage -->
<g id="node1" class="node">
<title>CalculatorPage</title>
<polygon fill="#ffffb3" stroke="black" points="513.53,-84.8 412.47,-84.8 412.47,-48.8 513.53,-48.8 513.53,-84.8"/>
<text text-anchor="middle" x="463" y="-62.6" font-family="Times,serif" font-size="14.00">CalculatorPage</text>
</g>
<!-- CalculatorPageModule -->
<g id="node2" class="node">
<title>CalculatorPageModule</title>
<polygon fill="#8dd3c7" stroke="black" points="365.57,-149.8 362.57,-153.8 341.57,-153.8 338.57,-149.8 220.43,-149.8 220.43,-113.8 365.57,-113.8 365.57,-149.8"/>
<text text-anchor="middle" x="293" y="-127.6" font-family="Times,serif" font-size="14.00">CalculatorPageModule</text>
</g>
<!-- CalculatorPage&#45;&gt;CalculatorPageModule -->
<g id="edge1" class="edge">
<title>CalculatorPage&#45;&gt;CalculatorPageModule</title>
<path fill="none" stroke="black" d="M463,-84.91C463,-104.14 463,-131.8 463,-131.8 463,-131.8 375.59,-131.8 375.59,-131.8"/>
<polygon fill="black" stroke="black" points="375.59,-128.3 365.59,-131.8 375.59,-135.3 375.59,-128.3"/>
</g>
<!-- CalculatorPageRoutingModule -->
<g id="node3" class="node">
<title>CalculatorPageRoutingModule</title>
<polygon fill="#8dd3c7" stroke="black" points="388.19,-84.8 385.19,-88.8 364.19,-88.8 361.19,-84.8 197.81,-84.8 197.81,-48.8 388.19,-48.8 388.19,-84.8"/>
<text text-anchor="middle" x="293" y="-62.6" font-family="Times,serif" font-size="14.00">CalculatorPageRoutingModule</text>
</g>
<!-- CalculatorPageRoutingModule&#45;&gt;CalculatorPageModule -->
<g id="edge2" class="edge">
<title>CalculatorPageRoutingModule&#45;&gt;CalculatorPageModule</title>
<path fill="none" stroke="black" d="M293,-84.91C293,-84.91 293,-103.79 293,-103.79"/>
<polygon fill="black" stroke="black" points="289.5,-103.79 293,-113.79 296.5,-103.79 289.5,-103.79"/>
</g>
<!-- OverviewHeaderModule -->
<g id="node4" class="node">
<title>OverviewHeaderModule</title>
<polygon fill="#8dd3c7" stroke="black" points="179.65,-84.8 176.65,-88.8 155.65,-88.8 152.65,-84.8 24.35,-84.8 24.35,-48.8 179.65,-48.8 179.65,-84.8"/>
<text text-anchor="middle" x="102" y="-62.6" font-family="Times,serif" font-size="14.00">OverviewHeaderModule</text>
</g>
<!-- OverviewHeaderModule&#45;&gt;CalculatorPageModule -->
<g id="edge3" class="edge">
<title>OverviewHeaderModule&#45;&gt;CalculatorPageModule</title>
<path fill="none" stroke="black" d="M102,-84.91C102,-104.14 102,-131.8 102,-131.8 102,-131.8 210.25,-131.8 210.25,-131.8"/>
<polygon fill="black" stroke="black" points="210.25,-135.3 220.25,-131.8 210.25,-128.3 210.25,-135.3"/>
</g>
</g>
</svg>
