<?xml version="1.0" encoding="UTF-8" standalone="no"?>
<!DOCTYPE svg PUBLIC "-//W3C//DTD SVG 1.1//EN"
 "http://www.w3.org/Graphics/SVG/1.1/DTD/svg11.dtd">
<!-- Generated by graphviz version 2.47.3 (20210619.1520)
 -->
<!-- Title: dependencies Pages: 1 -->
<svg width="6189pt" height="261pt"
 viewBox="0.00 0.00 6189.00 260.80" xmlns="http://www.w3.org/2000/svg" xmlns:xlink="http://www.w3.org/1999/xlink">
<g id="graph0" class="graph" transform="scale(1 1) rotate(0) translate(4 256.8)">
<title>dependencies</title>
<polygon fill="white" stroke="transparent" points="-4,4 -4,-256.8 6185,-256.8 6185,4 -4,4"/>
<text text-anchor="middle" x="3090.5" y="-8.2" font-family="sans-serif" font-size="14.00">dependencies</text>
<g id="clust1" class="cluster">
<title>cluster_AccountPageModule</title>
<polygon fill="none" stroke="black" stroke-dasharray="1,5" points="428,-100.8 428,-236.8 927,-236.8 927,-100.8 428,-100.8"/>
</g>
<g id="clust2" class="cluster">
<title>cluster_AccountPageModule_declarations</title>
<polygon fill="none" stroke="black" points="436,-108.8 436,-160.8 542,-160.8 542,-108.8 436,-108.8"/>
</g>
<g id="clust4" class="cluster">
<title>cluster_AccountPageModule_imports</title>
<polygon fill="none" stroke="black" points="550,-108.8 550,-160.8 919,-160.8 919,-108.8 550,-108.8"/>
</g>
<g id="clust14" class="cluster">
<title>cluster_AddCalendarPageModule</title>
<polygon fill="none" stroke="black" stroke-dasharray="1,5" points="4773,-32.8 4773,-160.8 5153,-160.8 5153,-32.8 4773,-32.8"/>
</g>
<g id="clust15" class="cluster">
<title>cluster_AddCalendarPageModule_declarations</title>
<polygon fill="none" stroke="black" points="5011,-40.8 5011,-92.8 5145,-92.8 5145,-40.8 5011,-40.8"/>
</g>
<g id="clust17" class="cluster">
<title>cluster_AddCalendarPageModule_imports</title>
<polygon fill="none" stroke="black" points="4781,-40.8 4781,-92.8 5003,-92.8 5003,-40.8 4781,-40.8"/>
</g>
<g id="clust27" class="cluster">
<title>cluster_AddSubjectPageModule</title>
<polygon fill="none" stroke="black" stroke-dasharray="1,5" points="5161,-32.8 5161,-160.8 5525,-160.8 5525,-32.8 5161,-32.8"/>
</g>
<g id="clust28" class="cluster">
<title>cluster_AddSubjectPageModule_declarations</title>
<polygon fill="none" stroke="black" points="5391,-40.8 5391,-92.8 5517,-92.8 5517,-40.8 5391,-40.8"/>
</g>
<g id="clust30" class="cluster">
<title>cluster_AddSubjectPageModule_imports</title>
<polygon fill="none" stroke="black" points="5169,-40.8 5169,-92.8 5383,-92.8 5383,-40.8 5169,-40.8"/>
</g>
<g id="clust40" class="cluster">
<title>cluster_AppModule</title>
<polygon fill="none" stroke="black" stroke-dasharray="1,5" points="5533,-32.8 5533,-244.8 5823,-244.8 5823,-32.8 5533,-32.8"/>
</g>
<g id="clust41" class="cluster">
<title>cluster_AppModule_declarations</title>
<polygon fill="none" stroke="black" points="5693,-40.8 5693,-92.8 5815,-92.8 5815,-40.8 5693,-40.8"/>
</g>
<g id="clust43" class="cluster">
<title>cluster_AppModule_imports</title>
<polygon fill="none" stroke="black" points="5541,-40.8 5541,-92.8 5685,-92.8 5685,-40.8 5541,-40.8"/>
</g>
<g id="clust45" class="cluster">
<title>cluster_AppModule_bootstrap</title>
<polygon fill="none" stroke="black" points="5621,-184.8 5621,-236.8 5745,-236.8 5745,-184.8 5621,-184.8"/>
</g>
<g id="clust53" class="cluster">
<title>cluster_CalculatorPageModule</title>
<polygon fill="none" stroke="black" stroke-dasharray="1,5" points="1463,-100.8 1463,-236.8 1811,-236.8 1811,-100.8 1463,-100.8"/>
</g>
<g id="clust54" class="cluster">
<title>cluster_CalculatorPageModule_declarations</title>
<polygon fill="none" stroke="black" points="1685,-108.8 1685,-160.8 1803,-160.8 1803,-108.8 1685,-108.8"/>
</g>
<g id="clust56" class="cluster">
<title>cluster_CalculatorPageModule_imports</title>
<polygon fill="none" stroke="black" points="1471,-108.8 1471,-160.8 1677,-160.8 1677,-108.8 1471,-108.8"/>
</g>
<g id="clust66" class="cluster">
<title>cluster_CalendarPageModule</title>
<polygon fill="none" stroke="black" stroke-dasharray="1,5" points="1819,-100.8 1819,-236.8 2151,-236.8 2151,-100.8 1819,-100.8"/>
</g>
<g id="clust67" class="cluster">
<title>cluster_CalendarPageModule_declarations</title>
<polygon fill="none" stroke="black" points="2033,-108.8 2033,-160.8 2143,-160.8 2143,-108.8 2033,-108.8"/>
</g>
<g id="clust69" class="cluster">
<title>cluster_CalendarPageModule_imports</title>
<polygon fill="none" stroke="black" points="1827,-108.8 1827,-160.8 2025,-160.8 2025,-108.8 1827,-108.8"/>
</g>
<g id="clust79" class="cluster">
<title>cluster_EditSubjectPageModule</title>
<polygon fill="none" stroke="black" stroke-dasharray="1,5" points="2159,-100.8 2159,-236.8 2521,-236.8 2521,-100.8 2159,-100.8"/>
</g>
<g id="clust80" class="cluster">
<title>cluster_EditSubjectPageModule_declarations</title>
<polygon fill="none" stroke="black" points="2389,-108.8 2389,-160.8 2513,-160.8 2513,-108.8 2389,-108.8"/>
</g>
<g id="clust82" class="cluster">
<title>cluster_EditSubjectPageModule_imports</title>
<polygon fill="none" stroke="black" points="2167,-108.8 2167,-160.8 2381,-160.8 2381,-108.8 2167,-108.8"/>
</g>
<g id="clust92" class="cluster">
<title>cluster_ForgotPasswordPageModule</title>
<polygon fill="none" stroke="black" stroke-dasharray="1,5" points="935,-32.8 935,-160.8 1455,-160.8 1455,-32.8 935,-32.8"/>
</g>
<g id="clust93" class="cluster">
<title>cluster_ForgotPasswordPageModule_declarations</title>
<polygon fill="none" stroke="black" points="943,-40.8 943,-92.8 1093,-92.8 1093,-40.8 943,-40.8"/>
</g>
<g id="clust95" class="cluster">
<title>cluster_ForgotPasswordPageModule_imports</title>
<polygon fill="none" stroke="black" points="1101,-40.8 1101,-92.8 1447,-92.8 1447,-40.8 1101,-40.8"/>
</g>
<g id="clust105" class="cluster">
<title>cluster_GyikPageModule</title>
<polygon fill="none" stroke="black" stroke-dasharray="1,5" points="2529,-100.8 2529,-236.8 2817,-236.8 2817,-100.8 2529,-100.8"/>
</g>
<g id="clust106" class="cluster">
<title>cluster_GyikPageModule_declarations</title>
<polygon fill="none" stroke="black" points="2721,-108.8 2721,-160.8 2809,-160.8 2809,-108.8 2721,-108.8"/>
</g>
<g id="clust108" class="cluster">
<title>cluster_GyikPageModule_imports</title>
<polygon fill="none" stroke="black" points="2537,-108.8 2537,-160.8 2713,-160.8 2713,-108.8 2537,-108.8"/>
</g>
<g id="clust118" class="cluster">
<title>cluster_HomePageModule</title>
<polygon fill="none" stroke="black" stroke-dasharray="1,5" points="3447,-32.8 3447,-160.8 3747,-160.8 3747,-32.8 3447,-32.8"/>
</g>
<g id="clust119" class="cluster">
<title>cluster_HomePageModule_declarations</title>
<polygon fill="none" stroke="black" points="3645,-40.8 3645,-92.8 3739,-92.8 3739,-40.8 3645,-40.8"/>
</g>
<g id="clust121" class="cluster">
<title>cluster_HomePageModule_imports</title>
<polygon fill="none" stroke="black" points="3455,-40.8 3455,-92.8 3637,-92.8 3637,-40.8 3455,-40.8"/>
</g>
<g id="clust131" class="cluster">
<title>cluster_LoginPageModule</title>
<polygon fill="none" stroke="black" stroke-dasharray="1,5" points="3755,-32.8 3755,-160.8 4053,-160.8 4053,-32.8 3755,-32.8"/>
</g>
<g id="clust132" class="cluster">
<title>cluster_LoginPageModule_declarations</title>
<polygon fill="none" stroke="black" points="3953,-40.8 3953,-92.8 4045,-92.8 4045,-40.8 3953,-40.8"/>
</g>
<g id="clust134" class="cluster">
<title>cluster_LoginPageModule_imports</title>
<polygon fill="none" stroke="black" points="3763,-40.8 3763,-92.8 3945,-92.8 3945,-40.8 3763,-40.8"/>
</g>
<g id="clust144" class="cluster">
<title>cluster_LogoModule</title>
<polygon fill="none" stroke="black" stroke-dasharray="1,5" points="3159,-100.8 3159,-168.8 3439,-168.8 3439,-100.8 3159,-100.8"/>
</g>
<g id="clust145" class="cluster">
<title>cluster_LogoModule_declarations</title>
<polygon fill="none" stroke="black" points="3305,-108.8 3305,-160.8 3431,-160.8 3431,-108.8 3305,-108.8"/>
</g>
<g id="clust148" class="cluster">
<title>cluster_LogoModule_exports</title>
<polygon fill="none" stroke="black" points="3167,-108.8 3167,-160.8 3297,-160.8 3297,-108.8 3167,-108.8"/>
</g>
<g id="clust151" class="cluster">
<title>cluster_OverviewHeaderModule</title>
<polygon fill="none" stroke="black" stroke-dasharray="1,5" points="8,-176.8 8,-244.8 420,-244.8 420,-176.8 8,-176.8"/>
</g>
<g id="clust152" class="cluster">
<title>cluster_OverviewHeaderModule_declarations</title>
<polygon fill="none" stroke="black" points="220,-184.8 220,-236.8 412,-236.8 412,-184.8 220,-184.8"/>
</g>
<g id="clust155" class="cluster">
<title>cluster_OverviewHeaderModule_exports</title>
<polygon fill="none" stroke="black" points="16,-184.8 16,-236.8 212,-236.8 212,-184.8 16,-184.8"/>
</g>
<g id="clust158" class="cluster">
<title>cluster_OverviewPageModule</title>
<polygon fill="none" stroke="black" stroke-dasharray="1,5" points="5831,-32.8 5831,-160.8 6173,-160.8 6173,-32.8 5831,-32.8"/>
</g>
<g id="clust159" class="cluster">
<title>cluster_OverviewPageModule_declarations</title>
<polygon fill="none" stroke="black" points="6051,-40.8 6051,-92.8 6165,-92.8 6165,-40.8 6051,-40.8"/>
</g>
<g id="clust161" class="cluster">
<title>cluster_OverviewPageModule_imports</title>
<polygon fill="none" stroke="black" points="5839,-40.8 5839,-92.8 6043,-92.8 6043,-40.8 5839,-40.8"/>
</g>
<g id="clust171" class="cluster">
<title>cluster_RegisterPageModule</title>
<polygon fill="none" stroke="black" stroke-dasharray="1,5" points="4061,-32.8 4061,-160.8 4385,-160.8 4385,-32.8 4061,-32.8"/>
</g>
<g id="clust172" class="cluster">
<title>cluster_RegisterPageModule_declarations</title>
<polygon fill="none" stroke="black" points="4271,-40.8 4271,-92.8 4377,-92.8 4377,-40.8 4271,-40.8"/>
</g>
<g id="clust174" class="cluster">
<title>cluster_RegisterPageModule_imports</title>
<polygon fill="none" stroke="black" points="4069,-40.8 4069,-92.8 4263,-92.8 4263,-40.8 4069,-40.8"/>
</g>
<g id="clust184" class="cluster">
<title>cluster_SubjectsPageModule</title>
<polygon fill="none" stroke="black" stroke-dasharray="1,5" points="2825,-100.8 2825,-236.8 3151,-236.8 3151,-100.8 2825,-100.8"/>
</g>
<g id="clust185" class="cluster">
<title>cluster_SubjectsPageModule_declarations</title>
<polygon fill="none" stroke="black" points="3037,-108.8 3037,-160.8 3143,-160.8 3143,-108.8 3037,-108.8"/>
</g>
<g id="clust187" class="cluster">
<title>cluster_SubjectsPageModule_imports</title>
<polygon fill="none" stroke="black" points="2833,-108.8 2833,-160.8 3029,-160.8 3029,-108.8 2833,-108.8"/>
</g>
<g id="clust197" class="cluster">
<title>cluster_VerifyEmailPageModule</title>
<polygon fill="none" stroke="black" stroke-dasharray="1,5" points="4393,-32.8 4393,-160.8 4765,-160.8 4765,-32.8 4393,-32.8"/>
</g>
<g id="clust198" class="cluster">
<title>cluster_VerifyEmailPageModule_declarations</title>
<polygon fill="none" stroke="black" points="4627,-40.8 4627,-92.8 4757,-92.8 4757,-40.8 4627,-40.8"/>
</g>
<g id="clust200" class="cluster">
<title>cluster_VerifyEmailPageModule_imports</title>
<polygon fill="none" stroke="black" points="4401,-40.8 4401,-92.8 4619,-92.8 4619,-40.8 4401,-40.8"/>
</g>
<!-- AccountPage -->
<g id="node1" class="node">
<title>AccountPage</title>
<polygon fill="#ffffb3" stroke="black" points="534.14,-152.8 443.86,-152.8 443.86,-116.8 534.14,-116.8 534.14,-152.8"/>
<text text-anchor="middle" x="489" y="-130.6" font-family="Times,serif" font-size="14.00">AccountPage</text>
</g>
<!-- AccountPageModule -->
<g id="node2" class="node">
<title>AccountPageModule</title>
<polygon fill="#8dd3c7" stroke="black" points="715.19,-228.8 712.19,-232.8 691.19,-232.8 688.19,-228.8 580.81,-228.8 580.81,-192.8 715.19,-192.8 715.19,-228.8"/>
<text text-anchor="middle" x="648" y="-206.6" font-family="Times,serif" font-size="14.00">AccountPageModule</text>
</g>
<!-- AccountPage&#45;&gt;AccountPageModule -->
<g id="edge1" class="edge">
<title>AccountPage&#45;&gt;AccountPageModule</title>
<path fill="none" stroke="black" d="M489,-152.81C489,-175.29 489,-210.8 489,-210.8 489,-210.8 570.57,-210.8 570.57,-210.8"/>
<polygon fill="black" stroke="black" points="570.57,-214.3 580.57,-210.8 570.57,-207.3 570.57,-214.3"/>
</g>
<!-- AccountPageRoutingModule -->
<g id="node3" class="node">
<title>AccountPageRoutingModule</title>
<polygon fill="#8dd3c7" stroke="black" points="737.81,-152.8 734.81,-156.8 713.81,-156.8 710.81,-152.8 558.19,-152.8 558.19,-116.8 737.81,-116.8 737.81,-152.8"/>
<text text-anchor="middle" x="648" y="-130.6" font-family="Times,serif" font-size="14.00">AccountPageRoutingModule</text>
</g>
<!-- AccountPageRoutingModule&#45;&gt;AccountPageModule -->
<g id="edge2" class="edge">
<title>AccountPageRoutingModule&#45;&gt;AccountPageModule</title>
<path fill="none" stroke="black" d="M648,-152.81C648,-152.81 648,-182.65 648,-182.65"/>
<polygon fill="black" stroke="black" points="644.5,-182.65 648,-192.65 651.5,-182.65 644.5,-182.65"/>
</g>
<!-- OverviewHeaderModule -->
<g id="node4" class="node">
<title>OverviewHeaderModule</title>
<polygon fill="#8dd3c7" stroke="black" points="910.65,-152.8 907.65,-156.8 886.65,-156.8 883.65,-152.8 755.35,-152.8 755.35,-116.8 910.65,-116.8 910.65,-152.8"/>
<text text-anchor="middle" x="833" y="-130.6" font-family="Times,serif" font-size="14.00">OverviewHeaderModule</text>
</g>
<!-- OverviewHeaderModule&#45;&gt;AccountPageModule -->
<g id="edge3" class="edge">
<title>OverviewHeaderModule&#45;&gt;AccountPageModule</title>
<path fill="none" stroke="black" d="M876.1,-153C876.1,-177.16 876.1,-216.8 876.1,-216.8 876.1,-216.8 725.2,-216.8 725.2,-216.8"/>
<polygon fill="black" stroke="black" points="725.2,-213.3 715.2,-216.8 725.2,-220.3 725.2,-213.3"/>
</g>
<!-- CalculatorPageModule -->
<g id="node16" class="node">
<title>CalculatorPageModule</title>
<polygon fill="#8dd3c7" stroke="black" points="1646.57,-228.8 1643.57,-232.8 1622.57,-232.8 1619.57,-228.8 1501.43,-228.8 1501.43,-192.8 1646.57,-192.8 1646.57,-228.8"/>
<text text-anchor="middle" x="1574" y="-206.6" font-family="Times,serif" font-size="14.00">CalculatorPageModule</text>
</g>
<!-- OverviewHeaderModule&#45;&gt;CalculatorPageModule -->
<g id="edge13" class="edge">
<title>OverviewHeaderModule&#45;&gt;CalculatorPageModule</title>
<path fill="none" stroke="black" d="M893.34,-152.83C893.34,-173.57 893.34,-204.8 893.34,-204.8 893.34,-204.8 1491.16,-204.8 1491.16,-204.8"/>
<polygon fill="black" stroke="black" points="1491.16,-208.3 1501.16,-204.8 1491.16,-201.3 1491.16,-208.3"/>
</g>
<!-- CalendarPageModule -->
<g id="node19" class="node">
<title>CalendarPageModule</title>
<polygon fill="#8dd3c7" stroke="black" points="1994.79,-228.8 1991.79,-232.8 1970.79,-232.8 1967.79,-228.8 1857.21,-228.8 1857.21,-192.8 1994.79,-192.8 1994.79,-228.8"/>
<text text-anchor="middle" x="1926" y="-206.6" font-family="Times,serif" font-size="14.00">CalendarPageModule</text>
</g>
<!-- OverviewHeaderModule&#45;&gt;CalendarPageModule -->
<g id="edge16" class="edge">
<title>OverviewHeaderModule&#45;&gt;CalendarPageModule</title>
<path fill="none" stroke="black" d="M807.14,-152.9C807.14,-163.89 807.14,-175.8 807.14,-175.8 807.14,-175.8 1903.12,-175.8 1903.12,-175.8 1903.12,-175.8 1903.12,-182.48 1903.12,-182.48"/>
<polygon fill="black" stroke="black" points="1899.62,-182.48 1903.12,-192.48 1906.62,-182.48 1899.62,-182.48"/>
</g>
<!-- EditSubjectPageModule -->
<g id="node22" class="node">
<title>EditSubjectPageModule</title>
<polygon fill="#8dd3c7" stroke="black" points="2350.09,-228.8 2347.09,-232.8 2326.09,-232.8 2323.09,-228.8 2197.91,-228.8 2197.91,-192.8 2350.09,-192.8 2350.09,-228.8"/>
<text text-anchor="middle" x="2274" y="-206.6" font-family="Times,serif" font-size="14.00">EditSubjectPageModule</text>
</g>
<!-- OverviewHeaderModule&#45;&gt;EditSubjectPageModule -->
<g id="edge19" class="edge">
<title>OverviewHeaderModule&#45;&gt;EditSubjectPageModule</title>
<path fill="none" stroke="black" d="M824.38,-153.22C824.38,-162.08 824.38,-170.8 824.38,-170.8 824.38,-170.8 2248.65,-170.8 2248.65,-170.8 2248.65,-170.8 2248.65,-182.67 2248.65,-182.67"/>
<polygon fill="black" stroke="black" points="2245.15,-182.67 2248.65,-192.67 2252.15,-182.67 2245.15,-182.67"/>
</g>
<!-- GyikPageModule -->
<g id="node29" class="node">
<title>GyikPageModule</title>
<polygon fill="#8dd3c7" stroke="black" points="2682.26,-228.8 2679.26,-232.8 2658.26,-232.8 2655.26,-228.8 2567.74,-228.8 2567.74,-192.8 2682.26,-192.8 2682.26,-228.8"/>
<text text-anchor="middle" x="2625" y="-206.6" font-family="Times,serif" font-size="14.00">GyikPageModule</text>
</g>
<!-- OverviewHeaderModule&#45;&gt;GyikPageModule -->
<g id="edge25" class="edge">
<title>OverviewHeaderModule&#45;&gt;GyikPageModule</title>
<path fill="none" stroke="black" d="M841.62,-152.94C841.62,-159.26 841.62,-164.8 841.62,-164.8 841.62,-164.8 2605.87,-164.8 2605.87,-164.8 2605.87,-164.8 2605.87,-182.62 2605.87,-182.62"/>
<polygon fill="black" stroke="black" points="2602.37,-182.62 2605.87,-192.62 2609.37,-182.62 2602.37,-182.62"/>
</g>
<!-- OverviewHeaderComponent  -->
<g id="node40" class="node">
<title>OverviewHeaderComponent </title>
<polygon fill="#fb8072" stroke="black" points="204.44,-228.8 23.56,-228.8 23.56,-192.8 204.44,-192.8 204.44,-228.8"/>
<text text-anchor="middle" x="114" y="-206.6" font-family="Times,serif" font-size="14.00">OverviewHeaderComponent </text>
</g>
<!-- OverviewHeaderModule&#45;&gt;OverviewHeaderComponent  -->
<g id="edge36" class="edge">
<title>OverviewHeaderModule&#45;&gt;OverviewHeaderComponent </title>
<path fill="none" stroke="black" stroke-dasharray="5,2" d="M772.66,-152.84C772.66,-166.09 772.66,-181.8 772.66,-181.8 772.66,-181.8 114,-181.8 114,-181.8 114,-181.8 114,-182.88 114,-182.88"/>
<polygon fill="black" stroke="black" points="110.5,-182.6 114,-192.6 117.5,-182.6 110.5,-182.6"/>
</g>
<!-- SubjectsPageModule -->
<g id="node48" class="node">
<title>SubjectsPageModule</title>
<polygon fill="#8dd3c7" stroke="black" points="2998.2,-228.8 2995.2,-232.8 2974.2,-232.8 2971.2,-228.8 2863.8,-228.8 2863.8,-192.8 2998.2,-192.8 2998.2,-228.8"/>
<text text-anchor="middle" x="2931" y="-206.6" font-family="Times,serif" font-size="14.00">SubjectsPageModule</text>
</g>
<!-- OverviewHeaderModule&#45;&gt;SubjectsPageModule -->
<g id="edge43" class="edge">
<title>OverviewHeaderModule&#45;&gt;SubjectsPageModule</title>
<path fill="none" stroke="black" d="M858.86,-152.99C858.86,-156.34 858.86,-158.8 858.86,-158.8 858.86,-158.8 2908.63,-158.8 2908.63,-158.8 2908.63,-158.8 2908.63,-182.61 2908.63,-182.61"/>
<polygon fill="black" stroke="black" points="2905.13,-182.61 2908.63,-192.61 2912.13,-182.61 2905.13,-182.61"/>
</g>
<!-- AddCalendarPage -->
<g id="node5" class="node">
<title>AddCalendarPage</title>
<polygon fill="#ffffb3" stroke="black" points="5136.85,-84.8 5019.15,-84.8 5019.15,-48.8 5136.85,-48.8 5136.85,-84.8"/>
<text text-anchor="middle" x="5078" y="-62.6" font-family="Times,serif" font-size="14.00">AddCalendarPage</text>
</g>
<!-- AddCalendarPageModule -->
<g id="node6" class="node">
<title>AddCalendarPageModule</title>
<polygon fill="#8dd3c7" stroke="black" points="5058.9,-152.8 5055.9,-156.8 5034.9,-156.8 5031.9,-152.8 4897.1,-152.8 4897.1,-116.8 5058.9,-116.8 5058.9,-152.8"/>
<text text-anchor="middle" x="4978" y="-130.6" font-family="Times,serif" font-size="14.00">AddCalendarPageModule</text>
</g>
<!-- AddCalendarPage&#45;&gt;AddCalendarPageModule -->
<g id="edge4" class="edge">
<title>AddCalendarPage&#45;&gt;AddCalendarPageModule</title>
<path fill="none" stroke="black" d="M5038.89,-85.02C5038.89,-85.02 5038.89,-106.53 5038.89,-106.53"/>
<polygon fill="black" stroke="black" points="5035.39,-106.53 5038.89,-116.53 5042.39,-106.53 5035.39,-106.53"/>
</g>
<!-- AddCalendarPageRoutingModule -->
<g id="node7" class="node">
<title>AddCalendarPageRoutingModule</title>
<polygon fill="#8dd3c7" stroke="black" points="4995.02,-84.8 4992.02,-88.8 4971.02,-88.8 4968.02,-84.8 4788.98,-84.8 4788.98,-48.8 4995.02,-48.8 4995.02,-84.8"/>
<text text-anchor="middle" x="4892" y="-62.6" font-family="Times,serif" font-size="14.00">AddCalendarPageRoutingModule</text>
</g>
<!-- AddCalendarPageRoutingModule&#45;&gt;AddCalendarPageModule -->
<g id="edge5" class="edge">
<title>AddCalendarPageRoutingModule&#45;&gt;AddCalendarPageModule</title>
<path fill="none" stroke="black" d="M4946.28,-85.02C4946.28,-85.02 4946.28,-106.53 4946.28,-106.53"/>
<polygon fill="black" stroke="black" points="4942.78,-106.53 4946.28,-116.53 4949.78,-106.53 4942.78,-106.53"/>
</g>
<!-- AddSubjectPage -->
<g id="node8" class="node">
<title>AddSubjectPage</title>
<polygon fill="#ffffb3" stroke="black" points="5508.81,-84.8 5399.19,-84.8 5399.19,-48.8 5508.81,-48.8 5508.81,-84.8"/>
<text text-anchor="middle" x="5454" y="-62.6" font-family="Times,serif" font-size="14.00">AddSubjectPage</text>
</g>
<!-- AddSubjectPageModule -->
<g id="node9" class="node">
<title>AddSubjectPageModule</title>
<polygon fill="#8dd3c7" stroke="black" points="5434.36,-152.8 5431.36,-156.8 5410.36,-156.8 5407.36,-152.8 5281.64,-152.8 5281.64,-116.8 5434.36,-116.8 5434.36,-152.8"/>
<text text-anchor="middle" x="5358" y="-130.6" font-family="Times,serif" font-size="14.00">AddSubjectPageModule</text>
</g>
<!-- AddSubjectPage&#45;&gt;AddSubjectPageModule -->
<g id="edge6" class="edge">
<title>AddSubjectPage&#45;&gt;AddSubjectPageModule</title>
<path fill="none" stroke="black" d="M5416.89,-85.02C5416.89,-85.02 5416.89,-106.53 5416.89,-106.53"/>
<polygon fill="black" stroke="black" points="5413.39,-106.53 5416.89,-116.53 5420.39,-106.53 5413.39,-106.53"/>
</g>
<!-- AddSubjectPageRoutingModule -->
<g id="node10" class="node">
<title>AddSubjectPageRoutingModule</title>
<polygon fill="#8dd3c7" stroke="black" points="5374.98,-84.8 5371.98,-88.8 5350.98,-88.8 5347.98,-84.8 5177.02,-84.8 5177.02,-48.8 5374.98,-48.8 5374.98,-84.8"/>
<text text-anchor="middle" x="5276" y="-62.6" font-family="Times,serif" font-size="14.00">AddSubjectPageRoutingModule</text>
</g>
<!-- AddSubjectPageRoutingModule&#45;&gt;AddSubjectPageModule -->
<g id="edge7" class="edge">
<title>AddSubjectPageRoutingModule&#45;&gt;AddSubjectPageModule</title>
<path fill="none" stroke="black" d="M5328.28,-85.02C5328.28,-85.02 5328.28,-106.53 5328.28,-106.53"/>
<polygon fill="black" stroke="black" points="5324.78,-106.53 5328.28,-116.53 5331.78,-106.53 5324.78,-106.53"/>
</g>
<!-- AppComponent -->
<g id="node11" class="node">
<title>AppComponent</title>
<polygon fill="#ffffb3" stroke="black" points="5806.94,-84.8 5701.06,-84.8 5701.06,-48.8 5806.94,-48.8 5806.94,-84.8"/>
<text text-anchor="middle" x="5754" y="-62.6" font-family="Times,serif" font-size="14.00">AppComponent</text>
</g>
<!-- AppModule -->
<g id="node12" class="node">
<title>AppModule</title>
<polygon fill="#8dd3c7" stroke="black" points="5724.66,-152.8 5721.66,-156.8 5700.66,-156.8 5697.66,-152.8 5641.34,-152.8 5641.34,-116.8 5724.66,-116.8 5724.66,-152.8"/>
<text text-anchor="middle" x="5683" y="-130.6" font-family="Times,serif" font-size="14.00">AppModule</text>
</g>
<!-- AppComponent&#45;&gt;AppModule -->
<g id="edge8" class="edge">
<title>AppComponent&#45;&gt;AppModule</title>
<path fill="none" stroke="black" d="M5713.05,-85.02C5713.05,-85.02 5713.05,-106.53 5713.05,-106.53"/>
<polygon fill="black" stroke="black" points="5709.55,-106.53 5713.05,-116.53 5716.55,-106.53 5709.55,-106.53"/>
</g>
<!-- AppComponent  -->
<g id="node14" class="node">
<title>AppComponent </title>
<polygon fill="#80b1d3" stroke="black" points="5737.44,-228.8 5628.56,-228.8 5628.56,-192.8 5737.44,-192.8 5737.44,-228.8"/>
<text text-anchor="middle" x="5683" y="-206.6" font-family="Times,serif" font-size="14.00">AppComponent </text>
</g>
<!-- AppModule&#45;&gt;AppComponent  -->
<g id="edge10" class="edge">
<title>AppModule&#45;&gt;AppComponent </title>
<path fill="none" stroke="black" stroke-dasharray="1,5" d="M5683,-152.81C5683,-152.81 5683,-182.65 5683,-182.65"/>
<polygon fill="black" stroke="black" points="5679.5,-182.65 5683,-192.65 5686.5,-182.65 5679.5,-182.65"/>
</g>
<!-- AppRoutingModule -->
<g id="node13" class="node">
<title>AppRoutingModule</title>
<polygon fill="#8dd3c7" stroke="black" points="5677.27,-84.8 5674.27,-88.8 5653.27,-88.8 5650.27,-84.8 5548.73,-84.8 5548.73,-48.8 5677.27,-48.8 5677.27,-84.8"/>
<text text-anchor="middle" x="5613" y="-62.6" font-family="Times,serif" font-size="14.00">AppRoutingModule</text>
</g>
<!-- AppRoutingModule&#45;&gt;AppModule -->
<g id="edge9" class="edge">
<title>AppRoutingModule&#45;&gt;AppModule</title>
<path fill="none" stroke="black" d="M5659.28,-85.02C5659.28,-85.02 5659.28,-106.53 5659.28,-106.53"/>
<polygon fill="black" stroke="black" points="5655.78,-106.53 5659.28,-116.53 5662.78,-106.53 5655.78,-106.53"/>
</g>
<!-- CalculatorPage -->
<g id="node15" class="node">
<title>CalculatorPage</title>
<polygon fill="#ffffb3" stroke="black" points="1794.53,-152.8 1693.47,-152.8 1693.47,-116.8 1794.53,-116.8 1794.53,-152.8"/>
<text text-anchor="middle" x="1744" y="-130.6" font-family="Times,serif" font-size="14.00">CalculatorPage</text>
</g>
<!-- CalculatorPage&#45;&gt;CalculatorPageModule -->
<g id="edge11" class="edge">
<title>CalculatorPage&#45;&gt;CalculatorPageModule</title>
<path fill="none" stroke="black" d="M1744,-152.81C1744,-175.29 1744,-210.8 1744,-210.8 1744,-210.8 1656.59,-210.8 1656.59,-210.8"/>
<polygon fill="black" stroke="black" points="1656.59,-207.3 1646.59,-210.8 1656.59,-214.3 1656.59,-207.3"/>
</g>
<!-- CalculatorPageRoutingModule -->
<g id="node17" class="node">
<title>CalculatorPageRoutingModule</title>
<polygon fill="#8dd3c7" stroke="black" points="1669.19,-152.8 1666.19,-156.8 1645.19,-156.8 1642.19,-152.8 1478.81,-152.8 1478.81,-116.8 1669.19,-116.8 1669.19,-152.8"/>
<text text-anchor="middle" x="1574" y="-130.6" font-family="Times,serif" font-size="14.00">CalculatorPageRoutingModule</text>
</g>
<!-- CalculatorPageRoutingModule&#45;&gt;CalculatorPageModule -->
<g id="edge12" class="edge">
<title>CalculatorPageRoutingModule&#45;&gt;CalculatorPageModule</title>
<path fill="none" stroke="black" d="M1574,-152.81C1574,-152.81 1574,-182.65 1574,-182.65"/>
<polygon fill="black" stroke="black" points="1570.5,-182.65 1574,-192.65 1577.5,-182.65 1570.5,-182.65"/>
</g>
<!-- CalendarPage -->
<g id="node18" class="node">
<title>CalendarPage</title>
<polygon fill="#ffffb3" stroke="black" points="2134.74,-152.8 2041.26,-152.8 2041.26,-116.8 2134.74,-116.8 2134.74,-152.8"/>
<text text-anchor="middle" x="2088" y="-130.6" font-family="Times,serif" font-size="14.00">CalendarPage</text>
</g>
<!-- CalendarPage&#45;&gt;CalendarPageModule -->
<g id="edge14" class="edge">
<title>CalendarPage&#45;&gt;CalendarPageModule</title>
<path fill="none" stroke="black" d="M2088,-152.81C2088,-175.29 2088,-210.8 2088,-210.8 2088,-210.8 2004.7,-210.8 2004.7,-210.8"/>
<polygon fill="black" stroke="black" points="2004.7,-207.3 1994.7,-210.8 2004.7,-214.3 2004.7,-207.3"/>
</g>
<!-- CalendarPageRoutingModule -->
<g id="node20" class="node">
<title>CalendarPageRoutingModule</title>
<polygon fill="#8dd3c7" stroke="black" points="2017.41,-152.8 2014.41,-156.8 1993.41,-156.8 1990.41,-152.8 1834.59,-152.8 1834.59,-116.8 2017.41,-116.8 2017.41,-152.8"/>
<text text-anchor="middle" x="1926" y="-130.6" font-family="Times,serif" font-size="14.00">CalendarPageRoutingModule</text>
</g>
<!-- CalendarPageRoutingModule&#45;&gt;CalendarPageModule -->
<g id="edge15" class="edge">
<title>CalendarPageRoutingModule&#45;&gt;CalendarPageModule</title>
<path fill="none" stroke="black" d="M1948.88,-152.81C1948.88,-152.81 1948.88,-182.65 1948.88,-182.65"/>
<polygon fill="black" stroke="black" points="1945.38,-182.65 1948.88,-192.65 1952.38,-182.65 1945.38,-182.65"/>
</g>
<!-- EditSubjectPage -->
<g id="node21" class="node">
<title>EditSubjectPage</title>
<polygon fill="#ffffb3" stroke="black" points="2505.04,-152.8 2396.96,-152.8 2396.96,-116.8 2505.04,-116.8 2505.04,-152.8"/>
<text text-anchor="middle" x="2451" y="-130.6" font-family="Times,serif" font-size="14.00">EditSubjectPage</text>
</g>
<!-- EditSubjectPage&#45;&gt;EditSubjectPageModule -->
<g id="edge17" class="edge">
<title>EditSubjectPage&#45;&gt;EditSubjectPageModule</title>
<path fill="none" stroke="black" d="M2451,-152.81C2451,-175.29 2451,-210.8 2451,-210.8 2451,-210.8 2360.09,-210.8 2360.09,-210.8"/>
<polygon fill="black" stroke="black" points="2360.09,-207.3 2350.09,-210.8 2360.09,-214.3 2360.09,-207.3"/>
</g>
<!-- EditSubjectPageRoutingModule -->
<g id="node23" class="node">
<title>EditSubjectPageRoutingModule</title>
<polygon fill="#8dd3c7" stroke="black" points="2372.71,-152.8 2369.71,-156.8 2348.71,-156.8 2345.71,-152.8 2175.29,-152.8 2175.29,-116.8 2372.71,-116.8 2372.71,-152.8"/>
<text text-anchor="middle" x="2274" y="-130.6" font-family="Times,serif" font-size="14.00">EditSubjectPageRoutingModule</text>
</g>
<!-- EditSubjectPageRoutingModule&#45;&gt;EditSubjectPageModule -->
<g id="edge18" class="edge">
<title>EditSubjectPageRoutingModule&#45;&gt;EditSubjectPageModule</title>
<path fill="none" stroke="black" d="M2299.35,-152.81C2299.35,-152.81 2299.35,-182.65 2299.35,-182.65"/>
<polygon fill="black" stroke="black" points="2295.85,-182.65 2299.35,-192.65 2302.85,-182.65 2295.85,-182.65"/>
</g>
<!-- ForgotPasswordPage -->
<g id="node24" class="node">
<title>ForgotPasswordPage</title>
<polygon fill="#ffffb3" stroke="black" points="1085.2,-84.8 950.8,-84.8 950.8,-48.8 1085.2,-48.8 1085.2,-84.8"/>
<text text-anchor="middle" x="1018" y="-62.6" font-family="Times,serif" font-size="14.00">ForgotPasswordPage</text>
</g>
<!-- ForgotPasswordPageModule -->
<g id="node25" class="node">
<title>ForgotPasswordPageModule</title>
<polygon fill="#8dd3c7" stroke="black" points="1308.75,-152.8 1305.75,-156.8 1284.75,-156.8 1281.75,-152.8 1131.25,-152.8 1131.25,-116.8 1308.75,-116.8 1308.75,-152.8"/>
<text text-anchor="middle" x="1220" y="-130.6" font-family="Times,serif" font-size="14.00">ForgotPasswordPageModule</text>
</g>
<!-- ForgotPasswordPage&#45;&gt;ForgotPasswordPageModule -->
<g id="edge20" class="edge">
<title>ForgotPasswordPage&#45;&gt;ForgotPasswordPageModule</title>
<path fill="none" stroke="black" d="M1018,-85.02C1018,-105.17 1018,-134.8 1018,-134.8 1018,-134.8 1121.11,-134.8 1121.11,-134.8"/>
<polygon fill="black" stroke="black" points="1121.11,-138.3 1131.11,-134.8 1121.11,-131.3 1121.11,-138.3"/>
</g>
<!-- ForgotPasswordPageRoutingModule -->
<g id="node26" class="node">
<title>ForgotPasswordPageRoutingModule</title>
<polygon fill="#8dd3c7" stroke="black" points="1331.37,-84.8 1328.37,-88.8 1307.37,-88.8 1304.37,-84.8 1108.63,-84.8 1108.63,-48.8 1331.37,-48.8 1331.37,-84.8"/>
<text text-anchor="middle" x="1220" y="-62.6" font-family="Times,serif" font-size="14.00">ForgotPasswordPageRoutingModule</text>
</g>
<!-- ForgotPasswordPageRoutingModule&#45;&gt;ForgotPasswordPageModule -->
<g id="edge21" class="edge">
<title>ForgotPasswordPageRoutingModule&#45;&gt;ForgotPasswordPageModule</title>
<path fill="none" stroke="black" d="M1220,-85.02C1220,-85.02 1220,-106.53 1220,-106.53"/>
<polygon fill="black" stroke="black" points="1216.5,-106.53 1220,-116.53 1223.5,-106.53 1216.5,-106.53"/>
</g>
<!-- LogoModule -->
<g id="node27" class="node">
<title>LogoModule</title>
<polygon fill="#8dd3c7" stroke="black" points="1438.6,-84.8 1435.6,-88.8 1414.6,-88.8 1411.6,-84.8 1349.4,-84.8 1349.4,-48.8 1438.6,-48.8 1438.6,-84.8"/>
<text text-anchor="middle" x="1394" y="-62.6" font-family="Times,serif" font-size="14.00">LogoModule</text>
</g>
<!-- LogoModule&#45;&gt;OverviewHeaderModule -->
<g id="edge35" class="edge">
<title>LogoModule&#45;&gt;OverviewHeaderModule</title>
<path fill="none" stroke="black" d="M1364.3,-84.95C1364.3,-97.07 1364.3,-110.8 1364.3,-110.8 1364.3,-110.8 833,-110.8 833,-110.8 833,-110.8 833,-111.38 833,-111.38"/>
<polygon fill="black" stroke="black" points="829.5,-106.61 833,-116.61 836.5,-106.61 829.5,-106.61"/>
</g>
<!-- LogoModule&#45;&gt;ForgotPasswordPageModule -->
<g id="edge22" class="edge">
<title>LogoModule&#45;&gt;ForgotPasswordPageModule</title>
<path fill="none" stroke="black" d="M1423.7,-85.02C1423.7,-105.17 1423.7,-134.8 1423.7,-134.8 1423.7,-134.8 1318.75,-134.8 1318.75,-134.8"/>
<polygon fill="black" stroke="black" points="1318.75,-131.3 1308.75,-134.8 1318.75,-138.3 1318.75,-131.3"/>
</g>
<!-- HomePageModule -->
<g id="node32" class="node">
<title>HomePageModule</title>
<polygon fill="#8dd3c7" stroke="black" points="3606.47,-152.8 3603.47,-156.8 3582.47,-156.8 3579.47,-152.8 3485.53,-152.8 3485.53,-116.8 3606.47,-116.8 3606.47,-152.8"/>
<text text-anchor="middle" x="3546" y="-130.6" font-family="Times,serif" font-size="14.00">HomePageModule</text>
</g>
<!-- LogoModule&#45;&gt;HomePageModule -->
<g id="edge28" class="edge">
<title>LogoModule&#45;&gt;HomePageModule</title>
<path fill="none" stroke="black" d="M1438.71,-57.8C1738.38,-57.8 3443.2,-57.8 3443.2,-57.8 3443.2,-57.8 3443.2,-134.8 3443.2,-134.8 3443.2,-134.8 3475.31,-134.8 3475.31,-134.8"/>
<polygon fill="black" stroke="black" points="3475.31,-138.3 3485.31,-134.8 3475.31,-131.3 3475.31,-138.3"/>
</g>
<!-- LoginPageModule -->
<g id="node35" class="node">
<title>LoginPageModule</title>
<polygon fill="#8dd3c7" stroke="black" points="3914.2,-152.8 3911.2,-156.8 3890.2,-156.8 3887.2,-152.8 3793.8,-152.8 3793.8,-116.8 3914.2,-116.8 3914.2,-152.8"/>
<text text-anchor="middle" x="3854" y="-130.6" font-family="Times,serif" font-size="14.00">LoginPageModule</text>
</g>
<!-- LogoModule&#45;&gt;LoginPageModule -->
<g id="edge31" class="edge">
<title>LogoModule&#45;&gt;LoginPageModule</title>
<path fill="none" stroke="black" d="M1379.15,-84.91C1379.15,-94.7 1379.15,-104.8 1379.15,-104.8 1379.15,-104.8 3833.97,-104.8 3833.97,-104.8 3833.97,-104.8 3833.97,-106.66 3833.97,-106.66"/>
<polygon fill="black" stroke="black" points="3830.47,-106.66 3833.97,-116.66 3837.47,-106.66 3830.47,-106.66"/>
</g>
<!-- LogoComponent  -->
<g id="node38" class="node">
<title>LogoComponent </title>
<polygon fill="#fb8072" stroke="black" points="3289.39,-152.8 3174.61,-152.8 3174.61,-116.8 3289.39,-116.8 3289.39,-152.8"/>
<text text-anchor="middle" x="3232" y="-130.6" font-family="Times,serif" font-size="14.00">LogoComponent </text>
</g>
<!-- LogoModule&#45;&gt;LogoComponent  -->
<g id="edge33" class="edge">
<title>LogoModule&#45;&gt;LogoComponent </title>
<path fill="none" stroke="black" stroke-dasharray="5,2" d="M1438.98,-75.8C1720.84,-75.8 3232,-75.8 3232,-75.8 3232,-75.8 3232,-106.78 3232,-106.78"/>
<polygon fill="black" stroke="black" points="3228.5,-106.78 3232,-116.78 3235.5,-106.78 3228.5,-106.78"/>
</g>
<!-- RegisterPageModule -->
<g id="node45" class="node">
<title>RegisterPageModule</title>
<polygon fill="#8dd3c7" stroke="black" points="4232.91,-152.8 4229.91,-156.8 4208.91,-156.8 4205.91,-152.8 4099.09,-152.8 4099.09,-116.8 4232.91,-116.8 4232.91,-152.8"/>
<text text-anchor="middle" x="4166" y="-130.6" font-family="Times,serif" font-size="14.00">RegisterPageModule</text>
</g>
<!-- LogoModule&#45;&gt;RegisterPageModule -->
<g id="edge40" class="edge">
<title>LogoModule&#45;&gt;RegisterPageModule</title>
<path fill="none" stroke="black" d="M1394,-84.83C1394,-91.65 1394,-97.8 1394,-97.8 1394,-97.8 4143.76,-97.8 4143.76,-97.8 4143.76,-97.8 4143.76,-106.73 4143.76,-106.73"/>
<polygon fill="black" stroke="black" points="4140.26,-106.73 4143.76,-116.73 4147.26,-106.73 4140.26,-106.73"/>
</g>
<!-- VerifyEmailPageModule -->
<g id="node51" class="node">
<title>VerifyEmailPageModule</title>
<polygon fill="#8dd3c7" stroke="black" points="4588.23,-152.8 4585.23,-156.8 4564.23,-156.8 4561.23,-152.8 4431.77,-152.8 4431.77,-116.8 4588.23,-116.8 4588.23,-152.8"/>
<text text-anchor="middle" x="4510" y="-130.6" font-family="Times,serif" font-size="14.00">VerifyEmailPageModule</text>
</g>
<!-- LogoModule&#45;&gt;VerifyEmailPageModule -->
<g id="edge46" class="edge">
<title>LogoModule&#45;&gt;VerifyEmailPageModule</title>
<path fill="none" stroke="black" d="M1408.85,-84.97C1408.85,-88.85 1408.85,-91.8 1408.85,-91.8 1408.85,-91.8 4483.88,-91.8 4483.88,-91.8 4483.88,-91.8 4483.88,-106.31 4483.88,-106.31"/>
<polygon fill="black" stroke="black" points="4480.38,-106.31 4483.88,-116.31 4487.38,-106.31 4480.38,-106.31"/>
</g>
<!-- GyikPage -->
<g id="node28" class="node">
<title>GyikPage</title>
<polygon fill="#ffffb3" stroke="black" points="2800.71,-152.8 2729.29,-152.8 2729.29,-116.8 2800.71,-116.8 2800.71,-152.8"/>
<text text-anchor="middle" x="2765" y="-130.6" font-family="Times,serif" font-size="14.00">GyikPage</text>
</g>
<!-- GyikPage&#45;&gt;GyikPageModule -->
<g id="edge23" class="edge">
<title>GyikPage&#45;&gt;GyikPageModule</title>
<path fill="none" stroke="black" d="M2765,-152.81C2765,-175.29 2765,-210.8 2765,-210.8 2765,-210.8 2692.35,-210.8 2692.35,-210.8"/>
<polygon fill="black" stroke="black" points="2692.35,-207.3 2682.35,-210.8 2692.35,-214.3 2692.35,-207.3"/>
</g>
<!-- GyikPageRoutingModule -->
<g id="node30" class="node">
<title>GyikPageRoutingModule</title>
<polygon fill="#8dd3c7" stroke="black" points="2704.88,-152.8 2701.88,-156.8 2680.88,-156.8 2677.88,-152.8 2545.12,-152.8 2545.12,-116.8 2704.88,-116.8 2704.88,-152.8"/>
<text text-anchor="middle" x="2625" y="-130.6" font-family="Times,serif" font-size="14.00">GyikPageRoutingModule</text>
</g>
<!-- GyikPageRoutingModule&#45;&gt;GyikPageModule -->
<g id="edge24" class="edge">
<title>GyikPageRoutingModule&#45;&gt;GyikPageModule</title>
<path fill="none" stroke="black" d="M2644.13,-152.81C2644.13,-152.81 2644.13,-182.65 2644.13,-182.65"/>
<polygon fill="black" stroke="black" points="2640.63,-182.65 2644.13,-192.65 2647.63,-182.65 2640.63,-182.65"/>
</g>
<!-- HomePage -->
<g id="node31" class="node">
<title>HomePage</title>
<polygon fill="#ffffb3" stroke="black" points="3730.92,-84.8 3653.08,-84.8 3653.08,-48.8 3730.92,-48.8 3730.92,-84.8"/>
<text text-anchor="middle" x="3692" y="-62.6" font-family="Times,serif" font-size="14.00">HomePage</text>
</g>
<!-- HomePage&#45;&gt;HomePageModule -->
<g id="edge26" class="edge">
<title>HomePage&#45;&gt;HomePageModule</title>
<path fill="none" stroke="black" d="M3692,-85.02C3692,-105.17 3692,-134.8 3692,-134.8 3692,-134.8 3616.65,-134.8 3616.65,-134.8"/>
<polygon fill="black" stroke="black" points="3616.65,-131.3 3606.65,-134.8 3616.65,-138.3 3616.65,-131.3"/>
</g>
<!-- HomePageRoutingModule -->
<g id="node33" class="node">
<title>HomePageRoutingModule</title>
<polygon fill="#8dd3c7" stroke="black" points="3629.09,-84.8 3626.09,-88.8 3605.09,-88.8 3602.09,-84.8 3462.91,-84.8 3462.91,-48.8 3629.09,-48.8 3629.09,-84.8"/>
<text text-anchor="middle" x="3546" y="-62.6" font-family="Times,serif" font-size="14.00">HomePageRoutingModule</text>
</g>
<!-- HomePageRoutingModule&#45;&gt;HomePageModule -->
<g id="edge27" class="edge">
<title>HomePageRoutingModule&#45;&gt;HomePageModule</title>
<path fill="none" stroke="black" d="M3546,-85.02C3546,-85.02 3546,-106.53 3546,-106.53"/>
<polygon fill="black" stroke="black" points="3542.5,-106.53 3546,-116.53 3549.5,-106.53 3542.5,-106.53"/>
</g>
<!-- LoginPage -->
<g id="node34" class="node">
<title>LoginPage</title>
<polygon fill="#ffffb3" stroke="black" points="4037.16,-84.8 3960.84,-84.8 3960.84,-48.8 4037.16,-48.8 4037.16,-84.8"/>
<text text-anchor="middle" x="3999" y="-62.6" font-family="Times,serif" font-size="14.00">LoginPage</text>
</g>
<!-- LoginPage&#45;&gt;LoginPageModule -->
<g id="edge29" class="edge">
<title>LoginPage&#45;&gt;LoginPageModule</title>
<path fill="none" stroke="black" d="M3999,-85.02C3999,-105.17 3999,-134.8 3999,-134.8 3999,-134.8 3924.23,-134.8 3924.23,-134.8"/>
<polygon fill="black" stroke="black" points="3924.23,-131.3 3914.23,-134.8 3924.23,-138.3 3924.23,-131.3"/>
</g>
<!-- LoginPageRoutingModule -->
<g id="node36" class="node">
<title>LoginPageRoutingModule</title>
<polygon fill="#8dd3c7" stroke="black" points="3936.82,-84.8 3933.82,-88.8 3912.82,-88.8 3909.82,-84.8 3771.18,-84.8 3771.18,-48.8 3936.82,-48.8 3936.82,-84.8"/>
<text text-anchor="middle" x="3854" y="-62.6" font-family="Times,serif" font-size="14.00">LoginPageRoutingModule</text>
</g>
<!-- LoginPageRoutingModule&#45;&gt;LoginPageModule -->
<g id="edge30" class="edge">
<title>LoginPageRoutingModule&#45;&gt;LoginPageModule</title>
<path fill="none" stroke="black" d="M3874.03,-85.02C3874.03,-85.02 3874.03,-106.53 3874.03,-106.53"/>
<polygon fill="black" stroke="black" points="3870.53,-106.53 3874.03,-116.53 3877.53,-106.53 3870.53,-106.53"/>
</g>
<!-- LogoComponent -->
<g id="node37" class="node">
<title>LogoComponent</title>
<polygon fill="#ffffb3" stroke="black" points="3423.39,-152.8 3312.61,-152.8 3312.61,-116.8 3423.39,-116.8 3423.39,-152.8"/>
<text text-anchor="middle" x="3368" y="-130.6" font-family="Times,serif" font-size="14.00">LogoComponent</text>
</g>
<!-- LogoComponent&#45;&gt;LogoModule -->
<g id="edge32" class="edge">
<title>LogoComponent&#45;&gt;LogoModule</title>
<path fill="none" stroke="black" d="M3368,-116.58C3368,-96.43 3368,-66.8 3368,-66.8 3368,-66.8 1448.94,-66.8 1448.94,-66.8"/>
<polygon fill="black" stroke="black" points="1448.94,-63.3 1438.94,-66.8 1448.94,-70.3 1448.94,-63.3"/>
</g>
<!-- OverviewHeaderComponent -->
<g id="node39" class="node">
<title>OverviewHeaderComponent</title>
<polygon fill="#ffffb3" stroke="black" points="404.44,-228.8 227.56,-228.8 227.56,-192.8 404.44,-192.8 404.44,-228.8"/>
<text text-anchor="middle" x="316" y="-206.6" font-family="Times,serif" font-size="14.00">OverviewHeaderComponent</text>
</g>
<!-- OverviewHeaderComponent&#45;&gt;OverviewHeaderModule -->
<g id="edge34" class="edge">
<title>OverviewHeaderComponent&#45;&gt;OverviewHeaderModule</title>
<path fill="none" stroke="black" d="M316,-192.68C316,-189.83 316,-187.8 316,-187.8 316,-187.8 789.9,-187.8 789.9,-187.8 789.9,-187.8 789.9,-163.04 789.9,-163.04"/>
<polygon fill="black" stroke="black" points="793.4,-163.04 789.9,-153.04 786.4,-163.04 793.4,-163.04"/>
</g>
<!-- OverviewPage -->
<g id="node41" class="node">
<title>OverviewPage</title>
<polygon fill="#ffffb3" stroke="black" points="6157.41,-84.8 6058.59,-84.8 6058.59,-48.8 6157.41,-48.8 6157.41,-84.8"/>
<text text-anchor="middle" x="6108" y="-62.6" font-family="Times,serif" font-size="14.00">OverviewPage</text>
</g>
<!-- OverviewPageModule -->
<g id="node42" class="node">
<title>OverviewPageModule</title>
<polygon fill="#8dd3c7" stroke="black" points="6087.96,-152.8 6084.96,-156.8 6063.96,-156.8 6060.96,-152.8 5946.04,-152.8 5946.04,-116.8 6087.96,-116.8 6087.96,-152.8"/>
<text text-anchor="middle" x="6017" y="-130.6" font-family="Times,serif" font-size="14.00">OverviewPageModule</text>
</g>
<!-- OverviewPage&#45;&gt;OverviewPageModule -->
<g id="edge37" class="edge">
<title>OverviewPage&#45;&gt;OverviewPageModule</title>
<path fill="none" stroke="black" d="M6073.39,-85.02C6073.39,-85.02 6073.39,-106.53 6073.39,-106.53"/>
<polygon fill="black" stroke="black" points="6069.89,-106.53 6073.39,-116.53 6076.89,-106.53 6069.89,-106.53"/>
</g>
<!-- OverviewPageRoutingModule -->
<g id="node43" class="node">
<title>OverviewPageRoutingModule</title>
<polygon fill="#8dd3c7" stroke="black" points="6034.57,-84.8 6031.57,-88.8 6010.57,-88.8 6007.57,-84.8 5847.43,-84.8 5847.43,-48.8 6034.57,-48.8 6034.57,-84.8"/>
<text text-anchor="middle" x="5941" y="-62.6" font-family="Times,serif" font-size="14.00">OverviewPageRoutingModule</text>
</g>
<!-- OverviewPageRoutingModule&#45;&gt;OverviewPageModule -->
<g id="edge38" class="edge">
<title>OverviewPageRoutingModule&#45;&gt;OverviewPageModule</title>
<path fill="none" stroke="black" d="M5990.28,-85.02C5990.28,-85.02 5990.28,-106.53 5990.28,-106.53"/>
<polygon fill="black" stroke="black" points="5986.78,-106.53 5990.28,-116.53 5993.78,-106.53 5986.78,-106.53"/>
</g>
<!-- RegisterPage -->
<g id="node44" class="node">
<title>RegisterPage</title>
<polygon fill="#ffffb3" stroke="black" points="4368.86,-84.8 4279.14,-84.8 4279.14,-48.8 4368.86,-48.8 4368.86,-84.8"/>
<text text-anchor="middle" x="4324" y="-62.6" font-family="Times,serif" font-size="14.00">RegisterPage</text>
</g>
<!-- RegisterPage&#45;&gt;RegisterPageModule -->
<g id="edge39" class="edge">
<title>RegisterPage&#45;&gt;RegisterPageModule</title>
<path fill="none" stroke="black" d="M4324,-85.02C4324,-105.17 4324,-134.8 4324,-134.8 4324,-134.8 4243.01,-134.8 4243.01,-134.8"/>
<polygon fill="black" stroke="black" points="4243.01,-131.3 4233.01,-134.8 4243.01,-138.3 4243.01,-131.3"/>
</g>
<!-- RegisterPageRoutingModule -->
<g id="node46" class="node">
<title>RegisterPageRoutingModule</title>
<polygon fill="#8dd3c7" stroke="black" points="4255.03,-84.8 4252.03,-88.8 4231.03,-88.8 4228.03,-84.8 4076.97,-84.8 4076.97,-48.8 4255.03,-48.8 4255.03,-84.8"/>
<text text-anchor="middle" x="4166" y="-62.6" font-family="Times,serif" font-size="14.00">RegisterPageRoutingModule</text>
</g>
<!-- RegisterPageRoutingModule&#45;&gt;RegisterPageModule -->
<g id="edge41" class="edge">
<title>RegisterPageRoutingModule&#45;&gt;RegisterPageModule</title>
<path fill="none" stroke="black" d="M4188.24,-85.02C4188.24,-85.02 4188.24,-106.53 4188.24,-106.53"/>
<polygon fill="black" stroke="black" points="4184.74,-106.53 4188.24,-116.53 4191.74,-106.53 4184.74,-106.53"/>
</g>
<!-- SubjectsPage -->
<g id="node47" class="node">
<title>SubjectsPage</title>
<polygon fill="#ffffb3" stroke="black" points="3135.15,-152.8 3044.85,-152.8 3044.85,-116.8 3135.15,-116.8 3135.15,-152.8"/>
<text text-anchor="middle" x="3090" y="-130.6" font-family="Times,serif" font-size="14.00">SubjectsPage</text>
</g>
<!-- SubjectsPage&#45;&gt;SubjectsPageModule -->
<g id="edge42" class="edge">
<title>SubjectsPage&#45;&gt;SubjectsPageModule</title>
<path fill="none" stroke="black" d="M3090,-152.81C3090,-175.29 3090,-210.8 3090,-210.8 3090,-210.8 3008.43,-210.8 3008.43,-210.8"/>
<polygon fill="black" stroke="black" points="3008.43,-207.3 2998.43,-210.8 3008.43,-214.3 3008.43,-207.3"/>
</g>
<!-- SubjectsPageRoutingModule -->
<g id="node49" class="node">
<title>SubjectsPageRoutingModule</title>
<polygon fill="#8dd3c7" stroke="black" points="3020.82,-152.8 3017.82,-156.8 2996.82,-156.8 2993.82,-152.8 2841.18,-152.8 2841.18,-116.8 3020.82,-116.8 3020.82,-152.8"/>
<text text-anchor="middle" x="2931" y="-130.6" font-family="Times,serif" font-size="14.00">SubjectsPageRoutingModule</text>
</g>
<!-- SubjectsPageRoutingModule&#45;&gt;SubjectsPageModule -->
<g id="edge44" class="edge">
<title>SubjectsPageRoutingModule&#45;&gt;SubjectsPageModule</title>
<path fill="none" stroke="black" d="M2953.37,-152.81C2953.37,-152.81 2953.37,-182.65 2953.37,-182.65"/>
<polygon fill="black" stroke="black" points="2949.87,-182.65 2953.37,-192.65 2956.87,-182.65 2949.87,-182.65"/>
</g>
<!-- VerifyEmailPage -->
<g id="node50" class="node">
<title>VerifyEmailPage</title>
<polygon fill="#ffffb3" stroke="black" points="4748.68,-84.8 4635.32,-84.8 4635.32,-48.8 4748.68,-48.8 4748.68,-84.8"/>
<text text-anchor="middle" x="4692" y="-62.6" font-family="Times,serif" font-size="14.00">VerifyEmailPage</text>
</g>
<!-- VerifyEmailPage&#45;&gt;VerifyEmailPageModule -->
<g id="edge45" class="edge">
<title>VerifyEmailPage&#45;&gt;VerifyEmailPageModule</title>
<path fill="none" stroke="black" d="M4692,-85.02C4692,-105.17 4692,-134.8 4692,-134.8 4692,-134.8 4598.24,-134.8 4598.24,-134.8"/>
<polygon fill="black" stroke="black" points="4598.24,-131.3 4588.24,-134.8 4598.24,-138.3 4598.24,-131.3"/>
</g>
<!-- VerifyEmailPageRoutingModule -->
<g id="node52" class="node">
<title>VerifyEmailPageRoutingModule</title>
<polygon fill="#8dd3c7" stroke="black" points="4610.85,-84.8 4607.85,-88.8 4586.85,-88.8 4583.85,-84.8 4409.15,-84.8 4409.15,-48.8 4610.85,-48.8 4610.85,-84.8"/>
<text text-anchor="middle" x="4510" y="-62.6" font-family="Times,serif" font-size="14.00">VerifyEmailPageRoutingModule</text>
</g>
<!-- VerifyEmailPageRoutingModule&#45;&gt;VerifyEmailPageModule -->
<g id="edge47" class="edge">
<title>VerifyEmailPageRoutingModule&#45;&gt;VerifyEmailPageModule</title>
<path fill="none" stroke="black" d="M4536.12,-85.02C4536.12,-85.02 4536.12,-106.53 4536.12,-106.53"/>
<polygon fill="black" stroke="black" points="4532.62,-106.53 4536.12,-116.53 4539.62,-106.53 4532.62,-106.53"/>
</g>
</g>
</svg>
